<svg xmlns="http://www.w3.org/2000/svg" viewBox="0 0 798.936 655.38">
  <defs>
    <style>
      .cls-1 {
        fill: #56664c;
      }

      .cls-12, .cls-15, .cls-2, .cls-4, .cls-5, .cls-6 {
        fill: none;
      }

      .cls-14, .cls-3 {
        fill: #4b5940;
      }

      .cls-3 {
        font-size: 18px;
      }

      .cls-3, .cls-8, .cls-9 {
        font-family: BerlinSansFB-Reg, Berlin Sans FB;
      }

      .cls-12, .cls-4, .cls-5, .cls-6 {
        stroke: #4b5940;
      }

      .cls-12, .cls-4 {
        stroke-width: 3px;
      }

      .cls-6 {
        stroke-width: 2px;
      }

      .cls-7 {
        fill: #7a9348;
        stroke: #809949;
      }

      .cls-8, .cls-9 {
        fill: #37412a;
      }

      .cls-8 {
        font-size: 15px;
      }

      .cls-9 {
        font-size: 9px;
      }

      .cls-10 {
        opacity: 0.9;
      }

      .cls-11 {
        fill: #c7ea46;
      }

      .cls-12 {
        stroke-linecap: round;
      }

      .cls-13, .cls-14 {
        stroke: none;
      }
    </style>
  </defs>
  <g id="features_vecture" data-name="features vecture" transform="translate(-58.5 -219.964)">
    <ellipse id="Ellipse_76" data-name="Ellipse 76" class="cls-1" cx="216.388" cy="216.388" rx="216.388" ry="216.388" transform="translate(159.12 442.568)"/>
    <g id="Group_14" data-name="Group 14" transform="translate(240.091 219.964)">
      <g id="drop_icon" class="cls-2" transform="translate(13.307 34.832)">
        <path class="cls-13" d="M25.2-12.564S50.467,15.759,50.4,32.428s-11.283,25.2-25.2,25.2S.183,48.982,0,32.428,25.2-12.564,25.2-12.564Z"/>
        <path class="cls-14" d="M 25.20114898681641 -7.950584411621094 C 22.82107353210449 -5.103267669677734 18.86993598937988 -0.1921348571777344 14.96738815307617 5.477703094482422 C 11.39730453491211 10.66454696655273 8.569236755371094 15.45647811889648 6.561763763427734 19.72040748596191 C 4.1619873046875 24.81757164001465 2.963752746582031 29.08171272277832 3.000339508056641 32.39439392089844 C 3.04052734375 36.03215026855469 3.657730102539063 39.33573532104492 4.834823608398438 42.21339416503906 C 5.923915863037109 44.87593841552734 7.492294311523438 47.17344284057617 9.496376037597656 49.0421028137207 C 11.43404769897461 50.84883117675781 13.7652702331543 52.24554824829102 16.4253044128418 53.19345474243164 C 19.09871673583984 54.14612579345703 22.05169486999512 54.62917327880859 25.20218849182129 54.62917327880859 C 28.36314010620117 54.62917327880859 31.3252124786377 54.15029907226563 34.00611877441406 53.20584106445313 C 36.6805534362793 52.26367950439453 39.02024841308594 50.8748664855957 40.96019744873047 49.07801818847656 C 42.97023391723633 47.21626663208008 44.53722381591797 44.92481994628906 45.61766052246094 42.26734924316406 C 46.78905868530273 39.38612365722656 47.39002227783203 36.07171249389648 47.40385818481445 32.41617202758789 C 47.41651916503906 29.07057189941406 46.20159912109375 24.78347778320313 43.7928466796875 19.67397117614746 C 41.78011703491211 15.40451240539551 38.95351791381836 10.61360549926758 35.39157485961914 5.434337615966797 C 31.50286483764648 -0.2200584411621094 27.57203483581543 -5.111373901367188 25.20114898681641 -7.950584411621094 M 25.20218849182129 -12.564453125 C 25.20218849182129 -12.564453125 50.46689224243164 15.75920677185059 50.40383529663086 32.42752456665039 C 50.34076309204102 49.09582901000977 39.12067031860352 57.62917327880859 25.20218849182129 57.62917327880859 C 11.28369522094727 57.62917327880859 0.1833763122558594 48.98196029663086 0.000530242919921875 32.42752456665039 C -0.1823196411132813 15.87308883666992 25.20218849182129 -12.564453125 25.20218849182129 -12.564453125 Z"/>
      </g>
      <text id="HUMIDITY" class="cls-3" transform="translate(0 97.891)"><tspan x="0" y="16">HUMIDITY</tspan></text>
      <g id="drop_icon-2" data-name="drop_icon" class="cls-2" transform="translate(51.465 12.564)">
        <path class="cls-13" d="M15.821-12.564S31.681,5.216,31.641,15.68,24.558,31.5,15.821,31.5.115,26.072,0,15.68,15.821-12.564,15.821-12.564Z"/>
        <path class="cls-14" d="M 15.81929492950439 -7.914331436157227 C 14.35052680969238 -6.114824295043945 12.33804702758789 -3.540752410888672 10.33794975280762 -0.6374664306640625 C 5.566499710083008 6.288634300231934 2.960489273071289 12.0717945098877 2.999979019165039 15.64667415618896 C 3.023639678955078 17.78888511657715 3.383159637451172 19.72466468811035 4.068538665771484 21.40023422241211 C 4.690658569335938 22.9211540222168 5.583709716796875 24.23089408874512 6.722858428955078 25.29306411743164 C 8.97321891784668 27.39135360717773 12.11923980712891 28.50045394897461 15.82081890106201 28.50045394897461 C 17.6784496307373 28.50045394897461 19.41307830810547 28.22118377685547 20.97654914855957 27.67039489746094 C 22.51071929931641 27.12992477416992 23.84902000427246 26.33681488037109 24.95427894592285 25.31309509277344 C 26.09523010253906 24.25629425048828 26.98619842529297 22.95195388793945 27.60240936279297 21.43629455566406 C 28.28374862670898 19.76043510437012 28.63335037231445 17.81985473632813 28.64148902893066 15.66846466064453 C 28.65511894226074 12.06644439697266 26.05162048339844 6.284153938293457 21.31058883666992 -0.6132450103759766 C 19.31150054931641 -3.521579742431641 17.29226112365723 -6.107494354248047 15.81929492950439 -7.914331436157227 M 15.82081890106201 -12.56445503234863 C 15.82081890106201 -12.56445503234863 31.68105888366699 5.216073989868164 31.64146995544434 15.67981433868408 C 31.60187911987305 26.1435546875 24.55831909179688 31.50045394897461 15.82081890106201 31.50045394897461 C 7.083309173583984 31.50045394897461 0.1149501800537109 26.07206344604492 0.00016021728515625 15.67981433868408 C -0.1146202087402344 5.287564277648926 15.82081890106201 -12.56445503234863 15.82081890106201 -12.56445503234863 Z"/>
      </g>
    </g>
    <text id="SUN_LIGHT" data-name="SUN LIGHT" class="cls-3" transform="translate(67.911 488.172)"><tspan x="0" y="16">SUN LIGHT</tspan></text>
    <g id="Group_15" data-name="Group 15" transform="translate(551.494 234.937)">
      <g id="Group_10" data-name="Group 10" transform="translate(0 0)">
        <g id="Group_9" data-name="Group 9" transform="translate(21.442)">
          <path id="Path_8" data-name="Path 8" class="cls-4" d="M580.414,1652.111,546.854,1666.3l-3.806,36.329v3.46l3.806,3.46h4.5l3.114-3.46,2.422-18.338" transform="translate(-512.552 -1652.111)"/>
          <path id="Path_9" data-name="Path 9" class="cls-4" d="M604.213,1671.158l-13.494,5.19-28.025,42.9-36.675,12.11s-18.337-1.73,1.73-14.186" transform="translate(-518.359 -1647.631)"/>
          <path id="Path_10" data-name="Path 10" class="cls-4" d="M525.4,1709.68l16.607-5.19" transform="translate(-516.703 -1639.79)"/>
        </g>
        <g id="Ellipse_65" data-name="Ellipse 65" class="cls-5" transform="translate(24.705 56.683)">
          <ellipse class="cls-13" cx="4.323" cy="4.323" rx="4.323" ry="4.323"/>
          <ellipse class="cls-15" cx="4.323" cy="4.323" rx="3.823" ry="3.823"/>
        </g>
        <g id="Ellipse_66" data-name="Ellipse 66" class="cls-5" transform="translate(17.293 64.094)">
          <ellipse class="cls-13" cx="4.323" cy="4.323" rx="4.323" ry="4.323"/>
          <ellipse class="cls-15" cx="4.323" cy="4.323" rx="3.823" ry="3.823"/>
        </g>
        <g id="Ellipse_67" data-name="Ellipse 67" class="cls-5" transform="translate(8.647 56.683)">
          <ellipse class="cls-13" cx="4.323" cy="4.323" rx="4.323" ry="4.323"/>
          <ellipse class="cls-15" cx="4.323" cy="4.323" rx="3.823" ry="3.823"/>
        </g>
        <g id="Ellipse_68" data-name="Ellipse 68" class="cls-5" transform="translate(9.882 70.27)">
          <ellipse class="cls-13" cx="4.323" cy="4.323" rx="4.323" ry="4.323"/>
          <ellipse class="cls-15" cx="4.323" cy="4.323" rx="3.823" ry="3.823"/>
        </g>
        <g id="Ellipse_69" data-name="Ellipse 69" class="cls-5" transform="translate(0 70.27)">
          <ellipse class="cls-13" cx="4.323" cy="4.323" rx="4.323" ry="4.323"/>
          <ellipse class="cls-15" cx="4.323" cy="4.323" rx="3.823" ry="3.823"/>
        </g>
        <g id="Ellipse_70" data-name="Ellipse 70" class="cls-5" transform="translate(8.647 83.858)">
          <ellipse class="cls-13" cx="4.323" cy="4.323" rx="4.323" ry="4.323"/>
          <ellipse class="cls-15" cx="4.323" cy="4.323" rx="3.823" ry="3.823"/>
        </g>
        <g id="Ellipse_71" data-name="Ellipse 71" class="cls-5" transform="translate(4.941 97.445)">
          <ellipse class="cls-13" cx="4.323" cy="4.323" rx="4.323" ry="4.323"/>
          <ellipse class="cls-15" cx="4.323" cy="4.323" rx="3.823" ry="3.823"/>
        </g>
      </g>
      <text id="FERTILIZER" class="cls-3" transform="translate(31.434 95.848)"><tspan x="0" y="16">FERTILIZER</tspan></text>
    </g>
    <g id="Group_16" data-name="Group 16" transform="translate(752.547 417.809)">
      <g id="Group_13" data-name="Group 13" transform="translate(0 0)">
        <g id="Group_12" data-name="Group 12" transform="translate(0 0)">
          <path id="Oval_157" data-name="Oval 157" class="cls-4" d="M6.954,67.847C1.08,62.323.1,58.7,0,53.178c-.154-8.8,7.975-16.492,19.166-19.848C17.883,20,24.953,6.96,36.563,2.033,50.964-4.079,68.194,4.054,75.048,20.2q.385.907.716,1.822c15.043,1.618,27.4,11.958,27.622,24.823.248,14.207-14.8,26.569-31.918,26.867-.214,0-.426.005-.639.005s-.4,0-.6-.005H31.979l-.448.01q-1.183.021-2.39.022C21,73.745,12.3,72.876,6.954,67.847Z" transform="translate(0 0)"/>
          <g id="Group_11" data-name="Group 11" transform="translate(25.599 8.153)">
            <g id="Ellipse_72" data-name="Ellipse 72" class="cls-6" transform="translate(12.293)">
              <ellipse class="cls-13" cx="8.714" cy="19.39" rx="8.714" ry="19.39"/>
              <ellipse class="cls-15" cx="8.714" cy="19.39" rx="7.714" ry="18.39"/>
            </g>
            <g id="Ellipse_73" data-name="Ellipse 73" class="cls-6" transform="matrix(0.588, 0.809, -0.809, 0.588, 31.572, 0.943)">
              <ellipse class="cls-13" cx="8.714" cy="19.39" rx="8.714" ry="19.39"/>
              <ellipse class="cls-15" cx="8.714" cy="19.39" rx="7.714" ry="18.39"/>
            </g>
            <g id="Ellipse_74" data-name="Ellipse 74" class="cls-6" transform="matrix(0.545, -0.839, 0.839, 0.545, 0, 16.138)">
              <ellipse class="cls-13" cx="8.714" cy="19.39" rx="8.714" ry="19.39"/>
              <ellipse class="cls-15" cx="8.714" cy="19.39" rx="7.714" ry="18.39"/>
            </g>
          </g>
          <g id="Ellipse_75" data-name="Ellipse 75" class="cls-7" transform="translate(43.407 24.291)">
            <ellipse class="cls-13" cx="3.184" cy="3.184" rx="3.184" ry="3.184"/>
            <ellipse class="cls-15" cx="3.184" cy="3.184" rx="2.684" ry="2.684"/>
          </g>
        </g>
        <text id="CO" class="cls-8" transform="translate(38.067 48.348)"><tspan x="0" y="13">CO</tspan></text>
        <text id="_2" data-name="2" class="cls-9" transform="translate(56.797 54.046)"><tspan x="0" y="8">2</tspan></text>
      </g>
      <text id="BIO_GASES" data-name="BIO GASES" class="cls-3" transform="translate(5.285 80.601)"><tspan x="0" y="16">BIO GASES</tspan></text>
    </g>
    <g id="_2023229" data-name="2023229" class="cls-10" transform="translate(138.644 338.126)">
      <path id="Path_13" data-name="Path 13" class="cls-11" d="M648.762-951.361c-1.2.24-1.488.576-1.584,1.824-.24,2.208,1.68,6.193,3.84,8.017a11.586,11.586,0,0,0,4.08,2.16c2.16.576,6.384.288,6.384-.432,0-.192-.432-1.728-.96-3.408C658.6-949.489,654.187-952.513,648.762-951.361Z" transform="translate(-336.496 951.602)"/>
      <path id="Path_14" data-name="Path 14" class="cls-11" d="M604.621-945.8c-1.1,1.2-2.88,6.577-3.264,9.937-.288,2.3,1.056,8.5,1.728,8.065.192-.1.768.768,1.344,1.92a13.7,13.7,0,0,0,4.224,4.512,22.454,22.454,0,0,0,3.6,2.448c.816,0,2.4-2.688,3.312-5.616,1.3-4.224,1.3-11.089.048-13.873-1.2-2.592-4.08-5.808-6.241-6.865C606.349-946.81,605.629-946.905,604.621-945.8Z" transform="translate(-312.661 948.97)"/>
      <path id="Path_15" data-name="Path 15" class="cls-11" d="M720.371-923.644c-.336,1.824-.624,4.08-.672,4.9-.1,3.12,4.992,8.545,7.3,7.777,1.248-.384,1.968-2.64,1.968-6.336,0-4.224-1.728-7.441-4.9-9.073C721.475-927.724,720.995-927.388,720.371-923.644Z" transform="translate(-374.214 938.862)"/>
      <path id="Path_16" data-name="Path 16" class="cls-11" d="M550.024-911.417c-1.248.768-3.024,8.209-3.024,12.481.048,6.48,3.552,15.073,7.873,19.394,2.256,2.208,10.513,8.065,11.377,8.065s1.488-2.3,2.208-8.065c1.152-9.6-.192-16.8-4.224-22.61C560.777-907.1,552.184-912.762,550.024-911.417Z" transform="translate(-284.418 930.812)"/>
      <path id="Path_17" data-name="Path 17" class="cls-11" d="M361.145-911.253c-4.512,1.44-14.449,6.673-18.626,9.841-6,4.512-14.5,12.961-17.473,17.377a74.066,74.066,0,0,0-11.185,27.41,53.691,53.691,0,0,1-1.1,5.52c-.144.1-.768-.72-1.44-1.872-1.584-2.64-10.993-12.577-14.929-15.7a72.946,72.946,0,0,0-15.217-8.977c-5.184-1.968-5.472-2.3-5.328-6.481.24-5.9-1.968-10.273-6.048-12-4.416-1.92-6.049-.48-5.665,4.944a11.451,11.451,0,0,0,3.12,7.776l1.248,1.344-3.12-.24c-1.728-.144-4.608-.48-6.432-.816-3.5-.624-4.32-.576-11.329.672-7.633,1.3-9.5,1.776-10.033,2.4-.432.528.816.72,7.009.96a88.859,88.859,0,0,1,17.185,1.872c3.6.72,11.9,3.36,12.961,4.128a13.682,13.682,0,0,0,2.544.96c2.5.72,2.544,1.44.288,2.688-3.648,1.968-7.393,8.593-7.393,13.009,0,2.688.864,2.64,1.776-.1.912-2.784,5.472-8.065,7.969-9.265,5.136-2.5,9.889-.288,17.473,8.161,1.584,1.728,3.312,3.6,3.84,4.128,1.68,1.68,5.9,8.209,7.825,12.1,2.448,4.944,3.36,8.209,3.36,12.289,0,3.36.72,14.113,1.2,18.578l.288,2.3-2.88-.336c-3.024-.288-4.368.192-4.368,1.632a29.337,29.337,0,0,0,1.536,4.608,14.264,14.264,0,0,0,4.368,6.673l2.88,2.736,1.584,10.7c.864,5.9,2.928,18.674,4.56,28.466,1.632,9.745,3.072,18.53,3.168,19.442.192,1.44-.24.96-3.264-3.6-1.872-2.928-5.04-7.873-6.913-11.089-1.92-3.168-4.464-7.2-5.616-8.977-1.1-1.728-3.024-4.848-4.224-6.817-1.2-2.016-2.592-4.272-3.12-4.944-.576-.72-1.968-2.928-3.12-4.9s-3.168-5.184-4.56-7.2c-1.344-1.968-2.592-3.84-2.784-4.176-.24-.384.96-1.2,3.7-2.5,6.769-3.264,9.889-7.921,9.889-14.785,0-3.36-.528-3.7-5.52-3.408-5.424.288-9.5,2.256-12.625,6.145a25.97,25.97,0,0,1-2.544,2.784c-.432.192-.912-.48-6.961-9.7-2.208-3.36-4.032-6.529-3.984-6.961a8.886,8.886,0,0,1,1.584-2.928l1.584-2.16,4.32-.048c3.264-.048,4.9-.336,6.625-1.1a20.666,20.666,0,0,1,2.64-1.008,7.553,7.553,0,0,1,1.1,2.736c1.44,5.184,4.176,8.161,8.689,9.5,2.3.72,5.232.48,6.048-.432.624-.768-.24-6.1-1.392-8.737a13.959,13.959,0,0,0-6.913-5.712c-.816-.24-2.208-1.488-3.648-3.36a18.51,18.51,0,0,0-9.313-6.193c-.576-.192-.768-.624-.624-1.344a31.4,31.4,0,0,0,.24-10.513,6.342,6.342,0,0,0-.912-2.352c-.192,0-.576,1.584-.912,3.456-.336,1.92-1.008,5.088-1.584,7.009-.864,2.976-1.2,3.5-2.256,3.744a34.522,34.522,0,0,0-8.545,4.176c-1.44,1.3-1.392,1.68.432,4.128l1.536,2.112-1.152.912c-1.68,1.392-2.5.912-3.264-1.92-.384-1.44-1.056-2.688-1.44-2.832a3.481,3.481,0,0,0-2.3.576l-1.584.864-2.736-2.112c-6.24-4.848-15.745-10.513-17.617-10.513-1.056,0-2.064-1.488-3.456-5.041-2.5-6.528-2.88-7.249-6.577-10.945a34.521,34.521,0,0,1-3.744-4.08,5.769,5.769,0,0,1,1.392-1.632,10.337,10.337,0,0,0,2.256-4.512c.96-3.648.672-5.665-1.632-10.273-2.16-4.416-4.176-3.744-7.969,2.592a12.447,12.447,0,0,0-1.872,9.409l.48,2.3-4.272.336a17.413,17.413,0,0,0-4.464.72c-.336.528,1.536,1.1,2.208.672.96-.576,6.385.864,9.553,2.592,4.464,2.352,6.1,3.7,7.921,6.577,1.632,2.5,3.888,8.3,3.408,8.737a12.664,12.664,0,0,1-3.7-.528,48.671,48.671,0,0,0-9.5-.768,34.791,34.791,0,0,1-6.577-.384,5.15,5.15,0,0,1-1.1-2.112,5.047,5.047,0,0,0-1.1-2.112c-.72-.432-3.648,2.641-3.984,4.176-.336,1.44-.288,1.44-6.577,2.832-2.64.624-2.736.576-5.04-.816-5.616-3.456-13.921-4.9-18.818-3.264a9.279,9.279,0,0,0-2.88,1.392c-.432.528.624.672,5.808.864,6.241.24,9.025.816,9.025,1.824,0,.288-1.3.48-3.024.48-2.544,0-3.648.288-6.913,1.872-4.224,2.064-7.585,4.32-8.641,5.808-1.008,1.44-2.016,1.152-2.88-.864-1.056-2.5-.624-9.5.768-12.961,1.152-2.928,1.152-2.976.528-2.976-1.1,0-3.888,5.184-4.608,8.689-.816,3.792-.624,9.553.336,12.433a2.27,2.27,0,0,1-.432,2.832c-1.584,2.16-6.625,12.529-7.489,15.409a88.59,88.59,0,0,0-2.208,12.337c0,1.3-1.632.528-4.416-2.16-4.848-4.608-6.433-9.169-6-17.281.144-2.688.1-4.8-.144-4.657a21.051,21.051,0,0,0-1.68,3.84,13.255,13.255,0,0,0-1.1,6.865,19.265,19.265,0,0,0,5.328,12.1c1.632,1.872,3.168,3.36,3.5,3.36a2.872,2.872,0,0,1,1.392.96,2.762,2.762,0,0,0,1.44.96c.912,0,1.536,1.872,2.4,7.2a69.35,69.35,0,0,0,5.712,18.193,17.928,17.928,0,0,1,1.728,4.273c0,.912-3.36,4.416-5.136,5.328a5.716,5.716,0,0,1-2.16.528,3.255,3.255,0,0,0-1.776.576c-.432.48-2.928.624-9.217.624h-8.641l1.248,1.056a4.156,4.156,0,0,0,2.064,1.1,22.239,22.239,0,0,1,3.84.96,29.709,29.709,0,0,0,13.777.288,50.264,50.264,0,0,0,6.049-2.16c4.176-1.728,5.184-1.584,7.057,1.1,1.248,1.824,1.3,2.592.336,4.032a15.4,15.4,0,0,0-1.488,2.832l-.72,1.824,1.1-1.248c.624-.72,1.488-1.728,1.968-2.3s1.152-1.008,1.488-.912a33.93,33.93,0,0,1,4.56,5.088c2.16,2.736,6.145,7.489,8.833,10.561,2.736,3.072,7.2,8.3,9.937,11.617,7.2,8.641,16.465,19.3,20.69,23.762,4.608,4.9,7.633,8.449,7.633,8.929,0,.192-4.032-1.632-8.977-4.128q-46.8-23.474-64.229-29.522c-10.8-3.7-11.521-4.08-16.657-9.025a55.722,55.722,0,0,1-14.113-20.834c-2.448-5.9-2.112-8.113,1.68-11.569,1.92-1.728,7.1-3.7,9.841-3.7,1.248,0,1.68-.624.816-1.2a16.259,16.259,0,0,0-2.976-.72c-3.12-.624-6.145.144-10.129,2.592-1.968,1.152-2.88,1.488-3.12,1.1a73.464,73.464,0,0,1-.336-9.457c.048-9.745.672-14.4,3.072-22.994.816-2.736,1.44-5.184,1.44-5.472,0-1.44-2.4,2.016-4.608,6.625-7.777,16.321-8.3,32.931-1.536,48.484,2.4,5.424,6.769,13.249,8.593,15.361a11.346,11.346,0,0,1,1.392,1.776c0,.144-5.136.192-11.377.192-10.945,0-11.617.048-16.177,1.3A77.678,77.678,0,0,0,76-719.957a87.424,87.424,0,0,0-9.457,8.3c-7.729,7.825-10.513,12.865-3.936,6.961a53.147,53.147,0,0,1,4.224-3.456c.768-.528,1.872-1.3,2.448-1.68a101.6,101.6,0,0,1,11.425-6.481c4.464-2.016,13.105-4.752,13.969-4.416.96.384.144,4.224-1.488,7.009-1.776,3.072-8.017,9.409-11.041,11.233a8.561,8.561,0,0,0-2.544,1.968c0,.672,3.552-.1,6.337-1.344,6.289-2.784,11.473-8.257,14.881-15.649a28.7,28.7,0,0,1,2.448-4.464c.864-.576,14.5,0,18.1.816a79.02,79.02,0,0,1,14.113,4.512,28.505,28.505,0,0,0,4.944,1.824,76.592,76.592,0,0,1,11.185,4.656c1.536.768,1.968,3.744,1.392,9.7s-3.216,13.393-5.376,14.881-6.529.576-10.561-2.256c-2.112-1.488-2.112-.576-.048,1.344,1.776,1.68,6,4.032,7.3,4.032,1.2,0,.48,1.44-1.776,3.456-2.688,2.448-11.569,6.961-14.785,7.537-2.4.48-3.888,1.44-2.3,1.536,4.56.192,14.4-1.776,16.129-3.264a2.642,2.642,0,0,1,1.1-.624,37.057,37.057,0,0,0,4.656-3.7c3.36-2.88,4.608-4.368,5.952-6.961a46.868,46.868,0,0,0,5.28-18.962l.384-3.936,1.392.72c1.776.912,13.153,5.76,21.266,9.073,3.456,1.392,8.737,3.744,11.761,5.185s7.729,3.552,10.465,4.656c2.688,1.1,4.9,2.208,4.9,2.448s-2.544.432-5.617.432c-6.24,0-11.281.72-20.258,2.928-10.417,2.592-17.377,5.713-24.29,10.9a34.835,34.835,0,0,0-10.321,11.713l-1.536,2.88-2.256-.336a11.874,11.874,0,0,1-3.072-.816,44.727,44.727,0,0,0-7.681-.72c-6.529-.288-6.913-.384-9.937-1.92-4.752-2.5-8.161-3.5-11.953-3.5-3.36,0-5.808.576-5.808,1.344,0,.24,1.68.576,3.744.72,4.512.336,8.3,1.44,10.033,2.928,1.1.96,1.2,1.248.72,1.872a4.565,4.565,0,0,1-1.92,1.056c-2.592.624-8.737,5.857-12.1,10.225-1.488,1.968-4.176,8.593-3.648,9.073.1.144.576-.384,1.056-1.152a71.6,71.6,0,0,1,5.472-5.952c4.8-4.8,7.777-6.625,14.4-8.833,3.408-1.152,13.489-1.2,16.321-.1.384.144,1.392.48,2.16.72,1.3.384,1.44.624,1.392,2.3-.048,3.456-8.449,26.306-14.065,38.355l-1.824,3.84-3.024.624c-5.568,1.152-12.673,5.953-14.689,9.841-1.3,2.448-.432,2.5,2.016.048,2.88-2.832,7.969-5.472,10.609-5.472a6.037,6.037,0,0,1,2.208.288c.288.288-9.457,20.066-10.609,21.41-.336.432-1.728,2.448-3.024,4.512-2.688,4.272-3.12,6.241-.768,3.36,4.656-5.617,6.721-8.257,10.129-13.009,2.112-2.928,4.416-5.953,5.136-6.72a32.732,32.732,0,0,0,2.976-4.32c.912-1.584,2.928-4.944,4.512-7.441a121.691,121.691,0,0,0,9.217-18.1c1.632-4.368,2.208-4.608,3.12-1.392.912,3.12.96,8.449.048,14.929-.336,2.64-.432,4.992-.24,5.232.48.48,3.6-5.953,4.272-8.833.96-4.08.624-11.809-.672-17.041-1.44-5.857-1.44-6.481-.192-10.609a53.7,53.7,0,0,1,13.057-21.17c5.232-5.04,13.921-9.793,20.066-10.945,1.632-.288,1.728-.24,3.408,2.3,4.944,7.441,8.017,15.553,9.793,25.73,1.3,7.633.24,10.561-4.464,12.769-2.64,1.2-3.072,1.3-7.729,1.056-3.12-.192-4.8-.1-4.656.192a16.545,16.545,0,0,0,2.784,1.728,14.3,14.3,0,0,0,10.849.816c1.344-.48,2.592-.72,2.736-.528.672.672-1.824,10.753-3.936,15.937a110.189,110.189,0,0,1-9.217,17.233,7.658,7.658,0,0,0-1.344,2.592c.672.624,7.777-6.481,11.473-11.569,2.784-3.744,7.537-14.4,9.025-20.306,1.344-5.28,1.44-6.289,1.392-13.393-.048-4.225-.144-8.545-.144-9.6l-.1-1.92h2.976c2.64,0,3.5.288,8.161,2.64a29.286,29.286,0,0,1,8.689,6.144c1.92,1.92,3.7,3.456,3.936,3.36s-.1-1.3-.72-2.736c-1.44-3.024-6.961-8.593-11.569-11.569-2.64-1.728-10.7-4.752-12.769-4.8-.96,0-2.064-4.512-2.88-11.809-.72-6.145-.528-6.433,3.648-6.433,5.808.048,17.473,2.784,25.97,6.144,13.249,5.28,18.914,8.161,28.322,14.5,16.081,10.8,32.979,19.25,58.8,29.426,4.368,1.728,9.217,3.7,10.8,4.416,1.584.672,3.5,1.536,4.32,1.824,2.64,1.056,12.433,6.049,14.785,7.537a8.107,8.107,0,0,1,2.688,2.544,46.415,46.415,0,0,1,.96,6.816c.336,3.168,1.2,9.745,2.016,14.641.768,4.9,1.536,9.745,1.68,10.8s1.008,5.569,1.92,10.033a98.387,98.387,0,0,1,1.632,9.745c0,.864-1.2,4.464-2.64,8.017a105.481,105.481,0,0,0-6.529,21.17c-1.824,9.745-1.728,34.8.144,40.755a41.757,41.757,0,0,1,.864,6.1,28.986,28.986,0,0,0,.672,5.184c.192.288,1.632.528,3.312.528h2.976v-6l1.776-.144c1.056-.1,1.872-.432,2.064-.912.144-.432,0-5.712-.288-11.761-.336-6-.48-11.041-.336-11.185s1.008.048,1.968.48a3.786,3.786,0,0,1,2.4,2.736l.72,2.064.528-1.344a8.171,8.171,0,0,0,.528-2.3c0-.624.48-1.152,1.44-1.44l1.392-.528.144-4.848c.1-3.168.288-4.56.528-3.936,1.152,2.784,1.248,2.784.96.144a15.013,15.013,0,0,1,.048-3.984l.336-1.344,1.1,1.056a8.165,8.165,0,0,1,1.68,3.552c.672,2.976,2.256,5.808,3.072,5.424.336-.1,1.68-.576,3.072-1.008a5.793,5.793,0,0,0,2.736-1.488c.24-.672-1.488-9.361-3.408-17.042-1.152-4.752-.048-6.673,1.488-2.592.48,1.2,1.1,2.16,1.488,2.16a2.246,2.246,0,0,1,1.344,1.1c.72,1.008.768.96.768-1.392a15.069,15.069,0,0,0-.672-4.512c-.912-2.64-.912-2.88.144-1.536.864,1.152.912,1.1,1.728-4.08,3.936-24.242,10.321-45.748,18.482-61.925,1.3-2.592,5.088-9.361,8.4-15.025,8.5-14.353,12.337-22.514,18.482-38.883,7.537-20.21,10.753-26.786,19.778-40.083,7.345-10.849,12.433-16.609,18.194-20.45,2.544-1.728,3.456-1.344,5.856,2.352,2.256,3.5,6.145,11.521,6.145,12.673,0,.48-1.536,2.976-3.408,5.52-5.712,7.921-8.113,14.209-8.113,21.458,0,3.744.768,7.969,1.44,7.969.192,0,.528-1.008.672-2.3,1.344-9.5,4.416-17.137,8.689-21.6,3.408-3.5,4.368-3.408,6.337.528,2.016,4.08,7.969,11.953,11.953,15.745,6.144,5.808,16.657,12.1,24.482,14.5,7.057,2.208,17.953,3.936,17.953,2.832,0-.192-2.4-1.2-5.376-2.256-10.513-3.792-25.538-12.721-30.435-18.1l-1.776-1.968,2.928-1.056c5.088-1.872,9.265-5.616,10.7-9.745a3.482,3.482,0,0,0,.288-1.872c-.192-.144-1.392.816-2.736,2.16a17.267,17.267,0,0,1-10.513,5.28c-5.424.384-7.249-1.344-12.049-11.185-4.608-9.409-6.721-17.185-6.865-25.154l-.1-5.04,1.92-.912c3.168-1.536,10.753-3.264,15.6-3.552a53.712,53.712,0,0,1,15.841,1.632c4.56,1.3,13.585,5.041,15.841,6.529,4.7,3.168,7.489,5.953,8.113,8.113,1.056,3.648,5.953,12.385,8.833,15.745a31.2,31.2,0,0,0,10.513,7.921,15.092,15.092,0,0,0,2.112.72,53.691,53.691,0,0,0-4.56-5.041c-4.9-5.136-9.361-11.713-9.937-14.593-.432-2.064.288-1.92,4.32.672,9.6,6.24,30.291,14.737,46.756,19.2,4.416,1.2,8.977,2.5,10.177,2.88,2.928.96,6.721,1.632,6.721,1.2,0-.336-1.872-1.248-6-2.832-3.36-1.248-27.122-12.433-27.938-13.057-1.1-.96-.72-1.392,2.64-2.976,3.12-1.488,3.408-1.536,9.361-1.488,3.36.048,6.1-.1,6.1-.288,0-.24-1.248-.912-2.736-1.488-4.32-1.68-11.137-1.584-15.985.24-6.193,2.352-6.913,2.3-12.577-1.152-2.736-1.68-7.1-4.224-9.745-5.761-10.513-5.952-26.642-17.233-26.642-18.578,0-2.544,8.4-10.705,13.585-13.3,8.065-3.984,20.69-4.7,29.427-1.728,3.408,1.2,3.936,1.2,2.928.1-1.152-1.248-9.649-5.232-13.057-6.1a35.755,35.755,0,0,0-13.921,0,17.6,17.6,0,0,1-2.976.576c-.288-.336,1.008-4.128,2.016-5.857a37.691,37.691,0,0,1,4.752-5.472,26,26,0,0,0,3.5-3.7c-.336-.384-3.5.96-5.424,2.256-3.744,2.544-7.825,8.113-9.6,13.249-.672,1.92-1.248,2.688-2.592,3.456a41.5,41.5,0,0,0-9.5,8.641,26.6,26.6,0,0,1-3.072,3.5c-1.056.96-3.264,1.152-4.032.384-.72-.72-7.009-2.832-10.8-3.6-6.961-1.488-17.041-.672-25.49,1.968a189.122,189.122,0,0,0-18.673,7.441c-3.7,1.824-13.585,8.161-15.457,9.889-1.056.912-1.968,1.536-2.112,1.392a9.546,9.546,0,0,1,1.44-3.024c.912-1.536,2.256-3.888,3.024-5.232,6.144-10.849,9.265-16.225,11.041-18.962,1.1-1.776,2.88-4.9,3.936-6.961,1.056-2.112,3.312-5.953,4.992-8.641,1.68-2.64,3.7-6.048,4.464-7.537a10.312,10.312,0,0,1,1.824-2.736,6.653,6.653,0,0,1,1.92,1.776c6,6.961,11.041,11.089,17.377,14.113A28.542,28.542,0,0,0,521-753.272c3.744-.96,11.329-4.752,13.009-6.529.72-.768,1.2-1.392,1.1-1.392-.144,0-2.4.72-5.04,1.632-4.944,1.728-12.433,2.928-15.361,2.448-.912-.144-2.4-.336-3.312-.48-1.968-.336-2.064-.768-.528-2.784a14.558,14.558,0,0,0,3.168-8.161c0-2.784-.768-2.928-1.44-.24a15.141,15.141,0,0,1-3.7,7.345c-2.208,2.3-4.56,2.3-9.073,0-4.32-2.16-11.665-9.313-13.681-13.3-1.344-2.688-1.392-2.832-.672-4.56a19.917,19.917,0,0,1,2.064-3.456c.72-.96,2.784-4.32,4.608-7.489,6.913-12.049,11.953-18.289,20.882-25.778,7.153-5.953,6.481-5.857,13.537-2.4,7.153,3.5,10.657,4.416,17.138,4.416,4.032,0,5.424-.192,8.209-1.248,5.76-2.16,5.376-2.448-3.648-2.688-7.681-.24-8.257-.336-12-1.824-3.936-1.536-7.825-4.321-7.825-5.473,0-.336,1.008-1.008,2.3-1.44,1.248-.48,3.024-1.1,3.936-1.488a81.89,81.89,0,0,1,15.6-3.648,59.906,59.906,0,0,1,14.641-.672c8.5.336,9.073.1,3.84-1.632-6.625-2.112-9.217-2.5-19.682-2.784-11.521-.288-15.025.144-23.426,2.784a71.666,71.666,0,0,0-28.274,16.465c-1.728,1.632-3.264,2.976-3.456,3.072-.24.048-.528-3.408-.672-7.681-.432-12.289-2.544-20.306-7.969-30.291a63.03,63.03,0,0,0-15.6-18.818,42.223,42.223,0,0,0-4.32-3.12,32.126,32.126,0,0,1-3.6-2.352c-3.6-2.592-10.033-5.521-11.425-5.232-.672.144-.336.528,1.248,1.584,1.152.816,3.312,2.544,4.8,3.888s4.32,3.792,6.288,5.425a71.522,71.522,0,0,1,13.585,16.513,45.337,45.337,0,0,1,2.256,4.32c0,.192-1.008.336-2.208.336a24.132,24.132,0,0,0-10.513,3.168c-1.968,1.248-4.464,4.272-3.936,4.8.144.144,1.824-.576,3.744-1.536,3.408-1.776,3.744-1.824,8.449-1.872h4.9l1.728,1.68a9.986,9.986,0,0,1,2.64,4.8,75.248,75.248,0,0,1,2.4,17.474c0,3.984-.048,4.176-1.2,4.608-1.968.768-21.794,4.752-26.162,5.281a51.6,51.6,0,0,0-6.625,1.152c-2.256.576-2.544.576-2.4-.1a1.962,1.962,0,0,1,.864-1.1,93.266,93.266,0,0,0,11.569-7.585c2.592-2.256,5.52-6.384,6.145-8.593.624-2.112-.384-2.064-2.064.144-1.488,1.92-2.928,2.736-6.241,3.552a22.154,22.154,0,0,0-9.553,5.281c-2.784,2.448-2.832,2.448-6,2.448-3.792,0-5.376-.816-5.376-2.784s-2.16-10.417-3.792-14.881a78.823,78.823,0,0,0-4.128-9.025l-2.688-5.04,1.248-3.7a25.749,25.749,0,0,0-1.248-20.642c-1.584-3.216-2.5-3.7-3.168-1.68-.384,1.056-.192,1.92.768,3.984,1.632,3.6,1.968,9.6.768,14.641-.48,1.968-.96,3.6-1.152,3.6-.144,0-2.064-1.92-4.368-4.224a59.687,59.687,0,0,0-18.242-12.529c-7.009-3.072-6.817-2.928-8.641-6.577-3.6-7.3-8.833-12.1-13.969-12.913l-1.632-.288,1.44,1.1c5.712,4.416,9.841,9.7,9.841,12.625v1.488h-6.337c-6-.048-6.625.048-10.321,1.488a27.671,27.671,0,0,0-11.473,7.729c-2.88,3.024-7.729,9.985-7.249,10.465.1.144,1.584-1.056,3.216-2.64a37.424,37.424,0,0,1,37.347-8.017c5.088,1.728,8.113,3.7,14.545,9.6,7.1,6.481,9.121,9.409,6.529,9.409-1.44,0-5.664,1.1-9.025,2.352a34.8,34.8,0,0,0-11.617,8.017,12.778,12.778,0,0,1-2.784,2.592c-1.1,0-.192-1.584,2.208-4.032a23.009,23.009,0,0,0,3.984-5.424c1.1-2.4,1.3-3.408,1.3-7.1,0-5.184-.768-7.3-2.64-7.057-1.824.24-6.768,3.168-9.409,5.568-4.7,4.224-6.913,9.7-6.913,17.185,0,5.137.336,5.424,4.368,3.5,1.536-.768,2.976-1.248,3.168-1.056a12.094,12.094,0,0,1,.528,2.928,14.146,14.146,0,0,1-1.1,6.385,58.209,58.209,0,0,0-2.064,9.937c-.432,3.36-1.008,6.193-1.248,6.289-3.936,1.056-8.641,1.776-9.169,1.392-.336-.24-3.024-2.016-5.952-3.984a48.735,48.735,0,0,1-5.328-3.888,9.274,9.274,0,0,1,2.3-2.112,33.472,33.472,0,0,0,10.177-14.977,25.436,25.436,0,0,0,.96-3.168c0-.816-1.008-.336-1.392.672-.528,1.3-4.608,6.528-7.393,9.409-2.016,2.064-8.833,6.817-9.793,6.817-.288,0-.576-1.536-.72-3.744a12.65,12.65,0,0,0-1.536-6.192,9.136,9.136,0,0,0-2.016-2.736c-.384-.144-.672-.192-.672-.144s.432,1.488.96,3.12c.96,3.072,1.3,8.449.576,8.929-.672.432-7.3-2.208-7.3-2.928,0-1.68-2.5-5.425-4.56-6.865-3.456-2.4-4.224-1.68-1.344,1.248,2.016,2.016,3.408,4.752,2.784,5.376a40.471,40.471,0,0,1-5.088-.384c-4.944-.48-9.649-.288-11.9.576-1.488.528-1.968-.144-1.968-2.832v-2.016l2.592.288c2.448.24,5.568-.384,6.865-1.44,1.632-1.248-4.128-7.537-7.969-8.689-2.208-.624-2.208-.624-2.544-3.216a106.528,106.528,0,0,1,.1-17.953c.768-5.232,2.88-14.209,3.744-16.081.912-1.92,1.44-2.112,7.489-2.88a33.923,33.923,0,0,0,20.642-10.609c4.272-4.752,4.848-7.441,1.008-4.464-4.32,3.264-9.361,6.385-12.145,7.441-3.072,1.152-10.417,1.776-11.617.96-1.152-.768-.192-2.3,7.969-12.529,3.408-4.272,11.9-11.713,19.058-16.657,1.248-.864,2.256-1.776,2.256-2.064C363.785-912.021,363.545-912.021,361.145-911.253ZM420.19-841.5a63.992,63.992,0,0,1,5.328,13.345c1.44,5.376,2.64,19.586,1.68,20.546-.768.768-6.385,1.2-21.65,1.584-14.929.384-14.257.576-14.017-4.224l.192-3.12,5.088-.288c8.593-.48,13.873-2.4,18.578-6.625a16.275,16.275,0,0,0,5.376-10.129c.24-2.5.192-2.64-.864-2.928-1.968-.528-7.729-.336-11.137.384a18.209,18.209,0,0,0-11.713,7.249,19.141,19.141,0,0,1-3.168,3.552c-1.2,0,4.176-8.737,7.2-11.569a47.4,47.4,0,0,1,15.025-9.361C418.654-844,418.8-843.951,420.19-841.5Zm-204.5,9.553c2.064,1.488,2.688,1.68,4.464,1.488a16.123,16.123,0,0,0,4.32-1.392l2.3-1.2,3.312,1.008a37.932,37.932,0,0,1,3.984,1.392c.336.24.576,1.44.576,2.88,0,3.5.336,3.888,2.784,3.024a19.692,19.692,0,0,0,3.168-1.488c1.056-.72,1.3-.72,2.64-.048a6.58,6.58,0,0,1,1.68,1.2c.144.192-1.68,1.536-4.08,2.976a43.068,43.068,0,0,0-6.673,4.9c-2.256,2.256-2.352,2.3-2.88,1.3-.384-.72-.48-2.208-.24-4.512l.288-3.408-.96,1.2c-1.872,2.208-2.256,4.512-1.3,7.489l.864,2.688-1.392,1.92a50.771,50.771,0,0,0-6.1,10.9,85.987,85.987,0,0,0-6.577,21.074,31.571,31.571,0,0,1-1.248,5.857,49.184,49.184,0,0,1-6.625,1.152,60.91,60.91,0,0,0-10.273,2.208l-3.984,1.392-1.536-1.1a9.941,9.941,0,0,0-7.249-2.112c-3.552.192-3.984,1.1-.72,1.536,3.072.384,5.76,1.68,5.76,2.688,0,.384-.816,1.152-1.776,1.68a43.326,43.326,0,0,0-4.8,2.976c-1.776,1.248-3.264,1.968-3.7,1.776-1.056-.384-8.113-11.089-10.369-15.745-3.36-6.816-4.032-10.225-4.032-20.69,0-10.321.624-13.633,3.792-20.21,3.216-6.673,11.185-14.113,15.073-14.113,1.728,0,1.92.624.48,1.632a11.176,11.176,0,0,0-2.256,2.544,23.043,23.043,0,0,1-2.112,2.736,24.823,24.823,0,0,0-2.208,5.04c-1.248,3.792-1.536,4.224-3.264,5.136-1.488.816-1.824,1.2-1.728,2.16.192,1.344,2.016,4.752,2.544,4.752.192,0,.48,1.344.672,2.976a31.316,31.316,0,0,0,.576,3.984l.288.96.384-.96a7.958,7.958,0,0,0,.384-2.3c.048-1.632.336-1.632,3.216,0a18.268,18.268,0,0,0,8.593,2.208c3.312,0,8.881-.72,9.7-1.344,1.3-.96.384-2.88-3.264-6.721-3.6-3.744-8.017-6.481-10.561-6.481-3.7,0-3.7-1.344.1-5.76,2.352-2.736,3.072-3.264,3.6-2.832a1.717,1.717,0,0,1,.672,1.2,6.889,6.889,0,0,0,1.584,2.4c1.824,2.112,7.921,5.136,9.841,4.9,1.1-.144,1.3-.384,1.44-1.872.192-2.544-1.632-6.96-3.792-9.121a6.918,6.918,0,0,0-2.592-1.872c-.96,0-.912-.624.144-1.632,1.824-1.584,11.137-4.464,11.137-3.408a7.719,7.719,0,0,1-.768,1.776c-.768,1.44-.672,2.688.384,5.281.72,1.872,1.872,1.68,3.984-.624,1.536-1.728,1.776-2.208,1.536-3.744a15.339,15.339,0,0,0-.576-2.592C211.8-834.206,213.053-833.87,215.693-831.95Zm35.667,11.665c3.936,3.408,6.385,6.289,7.777,9.217a8.024,8.024,0,0,0,2.4,2.928,14.249,14.249,0,0,1,3.216,3.552c1.056,1.584,3.312,4.9,5.04,7.393s4.272,6.481,5.664,8.881c1.392,2.352,3.888,6.48,5.569,9.121,1.632,2.64,4.176,7.057,5.568,9.841,1.44,2.784,3.216,6,3.984,7.2,1.248,1.968,5.472,10.225,29.186,57.365,5.809,11.521,8.737,16.753,10.657,19.154,2.3,2.88,3.216,4.609,2.4,4.609-.576,0-4.464-2.16-7.1-3.936A109.949,109.949,0,0,1,308.1-700.275c-7.345-7.921-9.649-10.753-15.121-18.866-1.632-2.4-3.744-5.52-4.7-6.96a18.1,18.1,0,0,1-1.776-2.88c0-.192.672-.576,1.44-.864,1.728-.624,1.824-1.584.384-3.552-1.056-1.392-1.056-1.488-.288-4.416.432-1.632,1.056-4.656,1.392-6.72.576-3.936.24-7.441-1.3-13.057-.912-3.36-3.648-8.592-4.56-8.785-.672-.144-.672.24.1,3.84a58.012,58.012,0,0,1,1.2,8.113c.336,4.224-.1,9.553-.72,9.553a6.405,6.405,0,0,1-1.152-2.592,10.341,10.341,0,0,0-1.488-3.12c-1.008-.864-2.448.192-4.128,2.928a6.936,6.936,0,0,1-1.92,2.3c-.288,0-1.1-1.008-1.824-2.208s-2.208-3.312-3.312-4.752c-1.728-2.16-2.016-2.784-1.776-4.032.288-1.3.144-1.488-1.488-2.16a9.43,9.43,0,0,0-2.592-.768c-.432,0-2.016-1.1-3.552-2.4-4.368-3.744-12.625-8.161-15.217-8.161a10.144,10.144,0,0,1-2.3-.768,11.457,11.457,0,0,0-4.224-.72,29.935,29.935,0,0,1-5.328-.384c-1.584-.288-4.656-.624-6.865-.768a15.8,15.8,0,0,1-4.464-.672c-.576-.576.624-2.736,3.744-6.961a49.877,49.877,0,0,1,10.513-10.273c1.68-1.248,2.64-2.256,2.352-2.544-1.008-1.008-8.065,2.16-13.249,5.856a10.905,10.905,0,0,1-2.976,1.824c-.432-.48,3.648-11.617,6.049-16.322,3.072-6.193,4.944-9.169,7.825-12.385,3.216-3.648,9.5-9.169,10.465-9.169C247.663-823.117,249.536-821.821,251.36-820.285Zm233.923,9.025c-.768,5.136-1.776,9.457-2.784,11.425-.432.768-2.88,4.609-5.472,8.449-2.544,3.888-5.136,8.017-5.712,9.121-1.056,2.112-3.936,7.057-8.113,13.873-2.4,3.888-13.057,24.338-23.138,44.356-3.408,6.817-6.384,12.289-6.529,12.145-.432-.48,1.68-27.794,2.5-32.259.144-.624,1.44-1.68,3.456-2.832,3.552-2.064,3.408-2.784-.336-1.44a5.959,5.959,0,0,1-2.64.576c-.336-.288.528-14.305,1.2-20.306.24-2.112.528-6.1.72-8.881.576-10.561.72-11.473,1.824-11.617,1.488-.24,1.632-1.344.144-1.344-1.2,0-1.248-.1-1.2-3.024.048-1.632.192-4.128.336-5.569l.336-2.544,8.257-2.112a162.926,162.926,0,0,0,23.426-7.441c11.041-4.656,13.489-5.568,13.873-5.184C485.715-815.629,485.619-813.8,485.283-811.26Zm-150.3,3.984a47.844,47.844,0,0,0,19.394-.24c3.264-.864,3.264-.864,5.52.24,3.168,1.536,10.129,6.144,10.129,6.721,0,.912-2.208,1.776-6.385,2.592-4.7.864-10.849,3.408-10.129,4.129a10.794,10.794,0,0,0,3.6.576l3.216.144-2.832,3.072-2.88,3.072-1.536-1.488a4.745,4.745,0,0,0-2.88-1.536c-1.152,0-1.3.192-1.3,1.488a9.846,9.846,0,0,0,1.3,3.792l1.3,2.256-1.776,2.448c-1.632,2.16-10.417,17.953-10.417,18.625a6.247,6.247,0,0,1-1.248,1.728c-.672.864-1.1,1.776-.912,2.208.24.72-2.064,8.5-2.448,8.113s-2.208-15.7-1.968-16.321c.144-.384,1.2-.768,2.5-.912a6.686,6.686,0,0,0,5.376-3.888c.96-1.872.576-2.5-1.92-3.168-2.016-.576-3.552-.432-6.145.624-.672.288-.864-.432-1.344-5.088-.336-2.976-.768-6.721-1.008-8.3-.72-4.56-2.4-19.25-2.4-20.93,0-1.3.144-1.488,1.1-1.248C329.462-808.476,332.2-807.852,334.983-807.276Zm92.168,11.521c0,3.36-.288,3.5-4.512,1.92-2.976-1.152-5.232-2.736-4.944-3.552.192-.528,3.168-1.056,7.2-1.152l2.256-.1Zm-21.362-.912a25.546,25.546,0,0,1-1.728,3.264,19.756,19.756,0,0,0-2.352,12.433,27.939,27.939,0,0,0,.96,4.7c.672,1.776,3.792,6.433,4.272,6.433.72,0,5.424-6,6.769-8.641,1.824-3.648,3.36-8.785,3.36-11.329v-2.112l1.872.912a23.615,23.615,0,0,0,4.176,1.536,12.433,12.433,0,0,1,3.024,1.1c.72.528.576,3.7-.672,13.729-.336,3.024-.912,7.921-1.2,10.8-.768,7.393-2.592,18.386-3.12,18.914-.624.576-6.817,1.152-7.153.624a11.218,11.218,0,0,1,1.68-3.408,27.9,27.9,0,0,0,4.608-12.913,11.619,11.619,0,0,0,0-3.456,11,11,0,0,0-1.728,3.12c-2.448,5.328-6.336,11.377-9.073,14.017-2.4,2.352-2.784,2.544-4.944,2.544-2.592,0-3.792-.336-3.792-1.152,0-.288.816-2.976,1.776-5.953,1.68-5.28,1.728-5.568,1.248-8.593-.768-4.224-1.344-4.7-2.016-1.488-.336,1.344-.432,1.056-.72-2.016-1.2-11.425-5.424-20.882-12.913-28.658l-2.352-2.448,1.1-.768c1.68-1.056,8.113-1.92,15.7-2.112C405.932-797.675,406.077-797.627,405.788-796.667Zm-26.546,7.1a26.669,26.669,0,0,1,8.689,7.057c1.632,2.4,3.024,6.337,3.984,11.137.384,2.064.816,4.176.912,4.752.624,2.784-12.049,3.552-17.521,1.008a27.048,27.048,0,0,1-6.625-5.088c-3.984-3.888-4.416-3.888-2.448-.048a18.033,18.033,0,0,0,8.449,8.449c3.312,1.632,4.128,1.824,8.113,1.968a21.2,21.2,0,0,0,7.2-.624c1.488-.432,2.88-.624,3.072-.384.384.432.96,12.529.624,13.441-.336,1.008-4.176.72-7.441-.528a63.282,63.282,0,0,1-21.794-13.825c-5.809-5.617-8.065-8.593-7.585-10.081.672-2.16,4.512-6.961,9.217-11.521C372.906-790.475,375.066-791.387,379.242-789.563ZM224.525-766.185a9.541,9.541,0,0,1-3.552,2.112c-.144,0-.24-.672-.24-1.44,0-1.392.1-1.44,2.208-1.44C224.909-766.953,225.1-766.857,224.525-766.185Zm-9.649,3.552c.576,3.216.576,3.744-.192,5.377-1.44,3.216-1.824,3.168-4.176-.528a26.865,26.865,0,0,0-4.656-5.281c-1.536-1.248-2.256-2.064-1.824-2.208a43.545,43.545,0,0,1,8.257-1.056l1.92.1Zm25.058-.288c0,1.152-2.544,5.232-4.464,7.153-1.968,1.968-7.057,4.656-8.881,4.656-.864,0-1.392-.624-2.5-3.024-1.968-4.032-1.872-4.512.864-5.664C232.4-763.065,239.935-764.6,239.935-762.92Zm10.273,2.3,3.024,2.016-3.216,3.168c-3.216,3.168-5.953,7.633-5.424,8.929.336.864,3.6,2.592,4.944,2.592,1.632,0,1.056.864-1.2,1.68-2.688,1.056-10.993.816-13.777-.384-1.3-.528-1.92-.624-2.112-.24-.576.912,1.344,2.016,6.481,3.7,4.752,1.584,5.04,1.632,7.825,1.056a23.188,23.188,0,0,0,11.233-5.664c4.464-3.84,6.048-4.848,6.337-4.08a18.521,18.521,0,0,0,2.064,2.88c1.056,1.248,2.64,3.168,3.6,4.32l1.728,2.016-2.448,1.056c-2.784,1.1-3.072,2.016-1.3,3.7,1.3,1.2,4.7,2.16,6.1,1.728.624-.192,1.3.144,2.16,1.056,1.2,1.3,1.248,1.536,1.056,5.712a17.413,17.413,0,0,1-1.488,7.1c-.768,1.68-1.536,2.688-1.872,2.592a11.543,11.543,0,0,1-2.016-3.648c-1.488-3.7-2.4-4.128-1.92-.912l.336,2.016-4.752-4.609c-4.608-4.464-12-9.841-15.025-10.9-.816-.288-1.488-.432-1.488-.288s2.784,2.976,6.145,6.336a73.911,73.911,0,0,1,18.578,29.042c1.68,4.993,2.64,9.937,1.968,9.937-1.1,0-2.5-1.392-4.656-4.7-4.752-7.056-20.546-26.306-28.418-34.659-2.88-3.024-5.76-6.289-6.385-7.2s-2.112-2.976-3.312-4.56c-3.456-4.56-5.04-7.057-4.752-7.537a23.928,23.928,0,0,1,3.744-2.064c5.712-2.736,8.545-6.1,11.089-13.537C243.391-763.928,246.943-762.776,250.208-760.616Zm-56.837.864c.816,3.456,3.984,7.537,7.441,9.6,3.12,1.824,9.793,4.272,11.9,4.32h1.392l-.336-3.552c-.336-3.264-.288-3.6.624-4.08,1.536-.816,2.544-.624,2.88.528.672,2.592,4.656,9.6,7.729,13.585,1.872,2.352,4.368,5.569,5.568,7.153a18.418,18.418,0,0,1,2.16,3.168c0,.528-3.12.96-7.1.96a16.042,16.042,0,0,1-7.153-1.44,26.422,26.422,0,0,0-4.128-1.44,17.763,17.763,0,0,1-3.7-1.92,22.345,22.345,0,0,0-3.5-1.92c-.816,0,1.152,2.832,3.12,4.416,6.769,5.568,14.641,8.065,25.442,8.065h3.216l4.224,5.376c15.553,19.682,22.13,32.211,24.818,47.284.384,2.3-.432,1.92-2.256-.96-2.592-4.08-7.729-9.553-16.177-17.281-15.745-14.449-46.18-44.74-55.349-55.013-8.737-9.793-11.857-13.633-11.857-14.545,0-.48,8.689-4.7,9.7-4.7C192.555-762.152,192.987-761.432,193.371-759.752Zm160.477,9.121c1.344,0,1.344,0-1.3,3.168-2.592,3.024-3.408,4.992-2.016,4.992a26.091,26.091,0,0,1,4.416,1.776c3.36,1.632,4.272,1.824,8.113,1.968,2.4.1,4.512.336,4.7.576a14.694,14.694,0,0,1,1.056,4.08,32.264,32.264,0,0,0,5.761,12.913l1.776,2.352-.768,4.945a64.04,64.04,0,0,0-.768,8.065c0,3.12,0,3.168-1.3,3.168-2.112,0-5.136-2.16-9.265-6.576-3.312-3.6-3.84-4.032-3.552-2.784a13.261,13.261,0,0,0,3.648,6.769c2.016,2.208,8.113,6.576,9.985,7.152a1.38,1.38,0,0,1,.96,1.44,41.631,41.631,0,0,0,.912,5.041c3.6,14.977,10.225,25.97,23.954,39.747,3.744,3.744,6.817,6.961,6.817,7.1,0,.192-1.632,2.544-3.6,5.328s-7.3,11.089-11.809,18.434-8.4,13.393-8.593,13.393a14.056,14.056,0,0,1-2.688-1.68,105.527,105.527,0,0,0-10.417-6.721c-2.784-1.632-4.848-3.168-5.088-3.744a39.175,39.175,0,0,1-.672-6.577c-.528-8.689-3.216-30.915-4.464-36.723-2.064-9.361-4.128-17.426-5.952-23.042-4.176-13.057-5.953-21.938-4.08-20.4,1.056.912,4.656-.624,6.145-2.592,1.392-1.776,2.3-4.656,1.92-6.049-.816-3.024-8.737,1.68-8.785,5.184-.048,2.064-.768.288-1.152-2.736-.288-2.256-.192-2.736.72-3.7.96-1.008,1.344-1.1,3.792-.816,2.16.192,2.832.1,3.5-.528,2.448-2.448-.624-8.641-5.424-11.089-3.552-1.776-3.84-2.256-3.84-5.953,0-3.984,1.344-14.305,2.016-15.553.384-.768.816-.864,2.208-.624A27.878,27.878,0,0,0,353.848-750.631Zm28.082,8.353a54.262,54.262,0,0,0,6.673,2.256,14.717,14.717,0,0,1,4.32,1.536c.432.432.432,1.584-.144,5.136-.672,4.56-1.1,11.041-2.16,31.923a129.889,129.889,0,0,0,0,17.473c.288,3.552.528,7.153.528,7.921v1.488l-1.008-1.2c-4.56-5.712-8.209-19.058-8.881-32.739-.336-7.057.432-18.53,1.536-22.754,1.728-6.673.192-5.616-2.928,2.016a51.034,51.034,0,0,0-2.16,5.809c0,1.488-.96.384-1.92-2.16-2.352-6.24-3.12-13.681-1.632-15.937C376.026-744.295,376.89-744.391,381.93-742.279Zm38.739,4.464c-.1.768-.576,3.7-.96,6.625-.912,6.193-6,34.851-7.681,43.3-1.632,7.921-2.352,15.025-1.968,19.25.384,4.992-.432,4.368-3.12-2.352a76.076,76.076,0,0,1-4.992-16.993c-1.44-8.641-2.5-29.426-1.92-38.4l.336-5.76,2.256-2.112c2.784-2.64,4.56-3.408,8.065-3.456a32.745,32.745,0,0,0,5.9-.672C421.006-739.3,420.91-739.3,420.67-737.814ZM280.546-712.852c-.72,2.448-.816,4.512-.288,5.137.48.624.864.624,2.736.048a10.254,10.254,0,0,0,3.456-1.872,4.981,4.981,0,0,1,1.824-1.248c.288,0,2.3,2.736,4.464,6.1,6.529,10.081,12.865,18.578,17.809,24,3.168,3.456,2.5,3.6-3.408.624-11.233-5.665-24.05-18.049-29.234-28.227-1.3-2.5-1.248-2.784.192-4.176C279.49-713.86,280.93-714.1,280.546-712.852Zm8.737,29.091c7.009,6.624,19.49,13.681,28.178,15.937,1.344.384,4.032,1.1,6,1.632a95.929,95.929,0,0,0,14.881,2.3c4.8.432,4.8.432,4.8,5.568,0,2.448.432,9.793.96,16.37.48,6.624.816,12.145.672,12.337-.1.192-3.408-1.1-7.3-2.88-3.888-1.824-7.585-3.456-8.209-3.648s-3.024-1.2-5.28-2.256c-3.552-1.632-16.177-6.624-34.611-13.729-2.784-1.056-5.616-2.112-6.337-2.256-2.16-.528-2.448-1.248-1.632-4.416a98.911,98.911,0,0,0,2.4-20.546C283.858-688.178,284.29-688.514,289.283-683.762Z" transform="translate(-30.637 930.935)"/>
      <path id="Path_18" data-name="Path 18" class="cls-11" d="M298.2-662.84a32.878,32.878,0,0,0-6.817,4.368c-2.3,2.16-3.024,3.552-1.872,3.552a8.063,8.063,0,0,1,2.5,1.728c6.769,6.145,16.081,4.9,26.642-3.6a11.028,11.028,0,0,0,2.016-1.92c0-.528-6.432-4.224-8.4-4.849-1.056-.336-2.4-.768-3.024-1.008a14.673,14.673,0,0,0-3.888-.432C303.052-665,301.852-664.616,298.2-662.84Z" transform="translate(-150.255 802.58)"/>
      <path id="Path_19" data-name="Path 19" class="cls-11" d="M439.48-679.088c-1.248,2.4.1,6.289,2.208,6.289,1.344,0,2.3-1.584,1.92-3.12-.336-1.248-2.544-4.08-3.216-4.08C440.2-680,439.768-679.568,439.48-679.088Z" transform="translate(-228.263 810.38)"/>
      <path id="Path_20" data-name="Path 20" class="cls-11" d="M450.018-670.8c-3.6,2.448-3.408,4.224.528,5.088,1.92.432,2.208.336,4.752-1.344a11.454,11.454,0,0,0,2.88-2.4c.24-.912-2.784-2.544-4.7-2.544A6.819,6.819,0,0,0,450.018-670.8Z" transform="translate(-232.656 806.22)"/>
      <path id="Path_21" data-name="Path 21" class="cls-11" d="M441.864-660.129c-.912,2.16-.528,4.656.864,5.617,1.248.912,2.064.576,2.784-1.2.72-1.632.384-3.168-1.008-4.9C443.208-662.337,442.728-662.241,441.864-660.129Z" transform="translate(-229.495 800.925)"/>
      <path id="Path_22" data-name="Path 22" class="cls-11" d="M481.552-654.045c-1.68,1.008-3.552,3.216-3.552,4.176,0,.336,1.2,1.056,2.64,1.584l2.688,1.008,2.592-1.92c2.256-1.68,3.6-3.168,3.6-4.032,0-.144-.624-.576-1.44-1.008A7.264,7.264,0,0,0,481.552-654.045Z" transform="translate(-248.541 797.338)"/>
      <path id="Path_23" data-name="Path 23" class="cls-11" d="M476.189-629.427c-1.968.576-4.368,3.024-6.145,6.241l-1.344,2.5,1.008.864c2.448,1.968,7.249,1.536,10.033-.912,1.3-1.1,4.464-6.432,4.464-7.441,0-.48-.912-.864-3.024-1.248a30.834,30.834,0,0,0-3.264-.48C477.821-629.907,477-629.667,476.189-629.427Z" transform="translate(-243.705 784.336)"/>
      <path id="Path_24" data-name="Path 24" class="cls-11" d="M865.26-676.784a41.812,41.812,0,0,0-4.224,6.385c-1.44,2.928-1.536,3.408-1.536,8.4,0,5.088.048,5.424,1.728,8.881a37.6,37.6,0,0,0,2.5,4.56c.72.96.72.96,1.776,0,1.392-1.248,5.28-6.96,6.913-10.177a27.5,27.5,0,0,0,1.824-5.808c.48-2.832.432-3.7-.24-5.9-.432-1.44-.912-3.168-1.1-3.888-.288-1.344-3.792-5.664-4.56-5.664A16.123,16.123,0,0,0,865.26-676.784Z" transform="translate(-446.906 810.38)"/>
      <path id="Path_25" data-name="Path 25" class="cls-11" d="M654-673.648c0,2.592,1.2,4.512,3.216,5.088.816.24,1.2,0,1.824-1.152a2.829,2.829,0,0,0,.048-3.12A4.725,4.725,0,0,0,655.1-676C654.1-676,654-675.76,654-673.648Z" transform="translate(-340.054 808.3)"/>
      <path id="Path_26" data-name="Path 26" class="cls-11" d="M640.4-657.792c-1.344,1.248-2.4,2.64-2.4,3.12,0,1.344,1.776,2.016,4.656,1.776,3.072-.288,4.848-1.392,6.1-3.984.912-1.776.912-1.824.048-2.5a8.349,8.349,0,0,0-3.456-.624C642.944-660,642.609-659.856,640.4-657.792Z" transform="translate(-331.735 799.98)"/>
      <path id="Path_27" data-name="Path 27" class="cls-11" d="M687.385-524.929c-3.888,1.152-6.385,3.84-6.385,6.817,0,2.352.528,2.688,3.12,2.016a8.3,8.3,0,0,0,6-5.9c.528-1.92.528-2.352-.048-2.928C689.545-525.457,689.065-525.457,687.385-524.929Z" transform="translate(-354.093 729.955)"/>
      <path id="Path_28" data-name="Path 28" class="cls-11" d="M686.549-466.082a16.972,16.972,0,0,0-2.64,1.344c-1.008.672-1.1.96-.672,2.16.672,1.872,4.128,4.368,6.577,4.752,2.544.384,7.249-1.056,7.489-2.256.192-.96-3.12-4.32-5.328-5.328C689.621-466.514,688.181-466.706,686.549-466.082Z" transform="translate(-355.129 699.334)"/>
      <path id="Path_29" data-name="Path 29" class="cls-11" d="M685.876-898.376c-.384.48-.24,1.584.48,4.224,1.632,5.808,4.08,8.113,8.785,8.113,1.68,0,2.3-.192,2.688-1.008,1.1-1.968-1.1-7.1-3.888-9.073-1.44-1.056-5.9-2.88-6.961-2.88A1.87,1.87,0,0,0,685.876-898.376Z" transform="translate(-356.52 924.251)"/>
      <path id="Path_30" data-name="Path 30" class="cls-11" d="M408.064-888.4c-2.784,2.88-3.552,4.08-4.224,6.24-.912,3.168-.672,4.944,1.152,8.977,1.344,2.88,2.3,3.456,3.456,2.064a1.978,1.978,0,0,1,1.1-.72c1.152,0,3.7-2.592,4.848-4.9a20.811,20.811,0,0,0,1.488-5.521c.288-2.736.192-3.312-1.248-6.385-1.008-2.256-1.824-3.36-2.352-3.36C411.808-892,409.936-890.368,408.064-888.4Z" transform="translate(-209.712 920.611)"/>
      <path id="Path_31" data-name="Path 31" class="cls-11" d="M718.82-889.295a12.338,12.338,0,0,0-2.832,2.16,4.41,4.41,0,0,0-1.44,3.792l-.048,2.256,2.352-.048c2.208,0,2.544-.192,4.224-2.16,1.824-2.064,3.12-5.28,2.544-6.192C723.189-890.159,720.5-890.063,718.82-889.295Z" transform="translate(-371.512 919.538)"/>
      <path id="Path_32" data-name="Path 32" class="cls-11" d="M440.732-886.984c-.816,2.976.48,7.681,2.544,9.409,1.3,1.056,5.184,2.976,6.1,2.976,1.776,0,1.872-6.289.144-9.745-1.056-2.208-4.56-4.656-6.625-4.656C441.356-889,441.212-888.856,440.732-886.984Z" transform="translate(-229.035 919.051)"/>
      <path id="Path_33" data-name="Path 33" class="cls-11" d="M351.078-871.185c-4.176,1.3-7.441,2.688-8.017,3.456-.528.672-.192,1.248,1.92,3.744,5.809,6.769,8.833,8.881,13.969,9.841,3.36.624,4.368.384,8.449-1.776,4.512-2.4,5.088-3.024,4.32-4.849-.96-2.4-6.673-7.873-9.745-9.361A15.715,15.715,0,0,0,351.078-871.185Z" transform="translate(-178.263 910.069)"/>
      <path id="Path_34" data-name="Path 34" class="cls-11" d="M701.809-869.327a13.294,13.294,0,0,0-3.744,2.5C696.24-865.054,696-864.574,696-862.7c0,3.12.384,3.5,2.88,2.832a7.563,7.563,0,0,0,5.28-5.376c.528-1.824.24-4.752-.384-4.656C703.585-869.855,702.721-869.615,701.809-869.327Z" transform="translate(-361.892 909.123)"/>
      <path id="Path_35" data-name="Path 35" class="cls-11" d="M841.94-856.508c-4.224,1.776-6.385,3.5-8.353,6.768-1.488,2.4-1.584,2.832-1.44,6.049.192,4.416.768,5.088,3.744,4.416,4.944-1.1,9.457-5.376,10.561-10.033.672-2.832.24-8.641-.624-8.593A23.39,23.39,0,0,0,841.94-856.508Z" transform="translate(-432.659 902.881)"/>
      <path id="Path_36" data-name="Path 36" class="cls-11" d="M942.312-854.944a14.261,14.261,0,0,0-3.312,8.5c0,2.208.288,3.168,1.92,5.9,2.4,4.032,3.408,4.656,4.849,3.168a21.4,21.4,0,0,0,2.4-3.984,11.578,11.578,0,0,0,1.392-6.049c0-2.736-.192-3.408-1.392-5.088-1.488-2.064-3.216-3.5-4.224-3.5A3.5,3.5,0,0,0,942.312-854.944Z" transform="translate(-488.243 901.893)"/>
      <path id="Path_37" data-name="Path 37" class="cls-11" d="M978.592-826.714a29.144,29.144,0,0,0-7.345,8.833,27.365,27.365,0,0,0-3.36,19.49c1.008,4.608,2.928,9.7,4.128,10.993.912.912.96.912,3.6-1.68a78.169,78.169,0,0,0,6.48-7.681c4.128-5.424,5.28-8.257,6.288-14.737a21.271,21.271,0,0,0-2.544-13.1C982.961-829.738,982.289-829.93,978.592-826.714Z" transform="translate(-502.969 887.776)"/>
      <path id="Path_38" data-name="Path 38" class="cls-11" d="M292.277-823.4c-2.544,2.4-3.36,4.368-3.12,7.633.192,2.928,1.92,6.193,3.264,6.193.912-.048,2.976-1.824,4.08-3.552,1.3-1.92,1.2-6.288-.144-8.449a15,15,0,0,1-1.344-2.544C294.581-825.275,294.149-825.179,292.277-823.4Z" transform="translate(-150.329 885.713)"/>
      <path id="Path_39" data-name="Path 39" class="cls-11" d="M1048.064-823.8c-3.408,1.776-7.441,5.712-8.881,8.689-1.2,2.448-1.248,2.976-1.008,6.721.336,4.56,1.632,9.745,2.544,10.129.816.288,5.136-2.832,8.977-6.529,4.944-4.848,6.192-9.217,4.272-15.073-1.056-3.12-2.256-5.136-3.12-5.136A17.006,17.006,0,0,0,1048.064-823.8Z" transform="translate(-539.75 885.774)"/>
      <path id="Path_40" data-name="Path 40" class="cls-11" d="M337.864-810.51c-.48.24-.864.672-.864.864,0,.816,3.984,5.376,5.232,6,2.064,1.056,5.472,1.392,6.481.624.912-.672.912-.72-.1-2.3C345.833-809.837,340.84-812.237,337.864-810.51Z" transform="translate(-175.227 878.532)"/>
      <path id="Path_41" data-name="Path 41" class="cls-11" d="M647-802.608c0,4.32,4.32,8.449,7.969,7.537,1.488-.384,1.536-2.208.048-4.848a7.415,7.415,0,0,0-6.144-4.08C647.144-804,647-803.9,647-802.608Z" transform="translate(-336.414 874.855)"/>
      <path id="Path_42" data-name="Path 42" class="cls-11" d="M704.884-798.944a14.434,14.434,0,0,0-3.216,3.984c-1.488,2.592-1.632,3.168-1.44,5.76a17.575,17.575,0,0,0,3.36,8.593c.624.864.72.816,2.592-.816a21.04,21.04,0,0,0,3.5-4.752c1.968-3.7,2.112-6.336.528-9.5-1.1-2.16-2.832-4.32-3.408-4.32A8.113,8.113,0,0,0,704.884-798.944Z" transform="translate(-364.055 872.775)"/>
      <path id="Path_43" data-name="Path 43" class="cls-11" d="M273.6-797.432c-1.776.432-3.6,1.392-3.6,1.872,0,.528,2.4,2.736,3.7,3.408s4.32.672,4.7.048a1.475,1.475,0,0,1,1.2-.48c1.3,0,1.632-.816.96-2.448C279.553-797.432,277.1-798.248,273.6-797.432Z" transform="translate(-140.389 871.599)"/>
      <path id="Path_44" data-name="Path 44" class="cls-11" d="M1099.773-792.59c-.912.576-2.784,1.776-4.176,2.592l-2.5,1.584.72,1.392c.96,1.968,4.848,5.473,5.856,5.28,1.68-.288,3.216-8.257,2.112-11.041C1101.5-793.55,1101.309-793.5,1099.773-792.59Z" transform="translate(-568.369 869.301)"/>
      <path id="Path_45" data-name="Path 45" class="cls-11" d="M297.175-791.385c-1.344.672-1.392,1.344-.1,2.976a6.823,6.823,0,0,0,8.065,2.16c2.352-.816,1.968-3.024-.912-4.944C302.887-792.057,298.855-792.2,297.175-791.385Z" transform="translate(-153.979 868.576)"/>
      <path id="Path_46" data-name="Path 46" class="cls-11" d="M1139.5-786.744c-3.408,3.84-4.32,9.937-2.16,14.113,1.2,2.4,4.128,5.712,4.992,5.712.816,0,4.368-5.472,5.233-8.113a14.506,14.506,0,0,0,0-7.585c-.48-1.3-5.088-6.384-5.76-6.384A10.68,10.68,0,0,0,1139.5-786.744Z" transform="translate(-590.764 867.055)"/>
      <path id="Path_47" data-name="Path 47" class="cls-11" d="M667.212-784.158c-1.2.48-1.1,1.2.432,4.272a6.686,6.686,0,0,0,4.273,3.84c2.208.624,3.888-.1,3.888-1.68C675.8-781.517,670.621-785.406,667.212-784.158Z" transform="translate(-346.498 864.661)"/>
      <path id="Path_48" data-name="Path 48" class="cls-11" d="M643.481-782.075a10.148,10.148,0,0,0-3.216,2.352c-1.248,1.488-3.264,6.145-3.264,7.537,0,1.92,6.1,1.056,9.265-1.392a10.715,10.715,0,0,0,2.832-3.168c1.1-2.16,1.152-5.568.1-5.953A8.209,8.209,0,0,0,643.481-782.075Z" transform="translate(-331.215 863.923)"/>
      <path id="Path_49" data-name="Path 49" class="cls-11" d="M486.071-780.266c-4.512,4.416-5.568,9.409-2.976,14.5a10.749,10.749,0,0,0,2.208,3.264c1.056.624,3.84-1.248,5.52-3.792,1.632-2.448,2.112-6.865.96-9.073a40.631,40.631,0,0,1-1.68-3.888c-.528-1.344-1.248-2.448-1.632-2.544A5.162,5.162,0,0,0,486.071-780.266Z" transform="translate(-250.467 863.314)"/>
      <path id="Path_50" data-name="Path 50" class="cls-11" d="M189.757-761.12c-3.552,3.216-5.952,7.3-6.433,11.041-.384,2.832.864,7.681,2.832,10.945,1.392,2.3,1.68,2.544,2.832,2.3a13.857,13.857,0,0,0,3.792-2.064c1.968-1.392,2.784-2.448,4.08-5.136,1.776-3.648,1.92-4.849,1.1-9.217-.624-3.36-3.7-10.753-4.464-10.753A18.963,18.963,0,0,0,189.757-761.12Z" transform="translate(-95.286 854.056)"/>
      <path id="Path_51" data-name="Path 51" class="cls-11" d="M864.347-757.448a22.725,22.725,0,0,0-3.648,2.4c-1.392,1.3-2.88,4.848-3.264,7.777-.288,1.872-.192,2.3.48,2.592.96.336,5.088-1.632,7.345-3.5,2.736-2.3,4.608-7.441,3.6-9.985C868.427-759.272,867.323-759.128,864.347-757.448Z" transform="translate(-445.752 851.393)"/>
      <path id="Path_52" data-name="Path 52" class="cls-11" d="M1163.681-753.247a18.761,18.761,0,0,0-2.5,1.1c-1.536.864-5.185,4.56-5.185,5.281,0,1.344,4.224,5.232,8.017,7.393,3.6,2.064,3.888,2.16,7.585,2.112a16.841,16.841,0,0,0,6.577-1.1c3.12-1.2,7.009-3.7,7.777-4.944.864-1.392-2.976-4.8-8.593-7.681-4.32-2.208-5.184-2.5-8.4-2.64A15.666,15.666,0,0,0,1163.681-753.247Z" transform="translate(-601.074 848.727)"/>
      <path id="Path_53" data-name="Path 53" class="cls-11" d="M254.733-745.264a10.884,10.884,0,0,0,1.392,6.1c1.248,1.68,4.368,3.744,5.328,3.552,2.064-.384.912-5.953-1.824-8.641C257.614-746.272,255.069-746.8,254.733-745.264Z" transform="translate(-132.419 844.777)"/>
      <path id="Path_54" data-name="Path 54" class="cls-11" d="M1138.864-735.608a18.453,18.453,0,0,0-3.024,4.224,12.477,12.477,0,0,0,.144,11.9c1.728,3.408,3.12,4.8,4.128,4.224s4.608-5.376,5.376-7.249a13.928,13.928,0,0,0,.72-8.209c-.576-2.112-3.936-6.288-5.088-6.288A6.319,6.319,0,0,0,1138.864-735.608Z" transform="translate(-589.842 840.017)"/>
      <path id="Path_55" data-name="Path 55" class="cls-11" d="M151.936-715.776a14.144,14.144,0,0,1-3.264,1.2c-.384,0-.672.192-.672.384,0,1.056,2.976,4.368,5.328,5.953,4.272,2.832,8.449,2.832,13.2-.144l1.632-.96L167.01-711.6a13.3,13.3,0,0,0-2.112-3.12C162.161-717.216,156.017-717.7,151.936-715.776Z" transform="translate(-76.954 829.594)"/>
      <path id="Path_56" data-name="Path 56" class="cls-11" d="M198.907-704.616c-1.68.336-3.84,1.3-4.176,1.776-.384.528,1.008,3.36,2.592,5.184a13.983,13.983,0,0,0,3.456,2.5,13.547,13.547,0,0,0,10.369.384c2.544-1.008,2.88-2.064,1.536-4.752-1.968-3.744-5.04-5.473-9.793-5.377A28.4,28.4,0,0,0,198.907-704.616Z" transform="translate(-101.218 823.331)"/>
      <path id="Path_57" data-name="Path 57" class="cls-11" d="M141.288-691.983a20.566,20.566,0,0,0-.288,3.552c0,2.3.144,2.592,2.208,4.464,2.208,2.064,4.7,3.408,6.337,3.408,1.584,0,1.824-3.744.48-7.3a10.683,10.683,0,0,0-3.072-3.216C143.88-693.375,141.768-693.711,141.288-691.983Z" transform="translate(-73.314 817.178)"/>
      <path id="Path_58" data-name="Path 58" class="cls-11" d="M1009.2-661.029c-6,4.944-7.345,8.353-5.28,13.2,1.728,3.984,3.744,3.888,7.585-.288a10.094,10.094,0,0,0,2.832-8.641c-.288-2.448-1.632-5.712-2.448-5.953C1011.6-662.8,1010.4-662.037,1009.2-661.029Z" transform="translate(-521.527 801.393)"/>
      <path id="Path_59" data-name="Path 59" class="cls-11" d="M128.54-651.2a9.927,9.927,0,0,0,1.2,8.257A10.31,10.31,0,0,0,134.4-639.2a15.346,15.346,0,0,0,4.368,1.632c1.008,0,1.2-.288,1.44-2.064a15.364,15.364,0,0,0-.144-4.176c-.24-1.2-.432-2.3-.48-2.5-.048-.96-2.832-3.456-5.472-4.944C130.172-653.409,129.26-653.409,128.54-651.2Z" transform="translate(-66.615 796.269)"/>
      <path id="Path_60" data-name="Path 60" class="cls-11" d="M1055.794-632.968a11.063,11.063,0,0,0-6.1,4.56c-1.056,2.016-.96,6.1.144,6.673,1.872,1.008,6.432-1.776,8.065-4.848.72-1.344.96-6.433.336-6.768A5.687,5.687,0,0,0,1055.794-632.968Z" transform="translate(-545.416 786.15)"/>
      <path id="Path_61" data-name="Path 61" class="cls-11" d="M1108.761-626.05a15.392,15.392,0,0,0-2.592,1.536c-1.056.96-3.168,4.176-3.168,4.9,0,.24,1.3,1.1,2.88,1.92a11.353,11.353,0,0,0,14.593-3.12c1.824-2.16,1.872-2.3,1.008-2.928a23.235,23.235,0,0,0-8.641-2.88A8.954,8.954,0,0,0,1108.761-626.05Z" transform="translate(-573.516 782.64)"/>
      <path id="Path_62" data-name="Path 62" class="cls-11" d="M233.858-620.232c-1.008,1.008-.96,1.2.528,3.024,2.256,2.688,4.464,3.5,9.073,3.312,2.208-.048,4.224-.384,4.56-.72.816-.816-1.152-3.744-3.456-5.232-1.584-.96-2.448-1.152-5.9-1.152C235.587-621,234.435-620.808,233.858-620.232Z" transform="translate(-121.241 779.702)"/>
      <path id="Path_63" data-name="Path 63" class="cls-11" d="M108.327-606.434c-.48.72.192,6.529,1.056,9.169,2.16,6.721,10.033,13.057,18.626,14.977,2.112.48,4.176.96,4.56,1.1a20.794,20.794,0,0,0,3.5.432c2.688.192,2.736.144,2.736-1.1,0-1.488-1.632-7.2-2.88-9.985a25.674,25.674,0,0,0-12-11.857c-4.32-1.92-5.328-2.256-8.881-2.784C110.679-607.106,108.711-607.058,108.327-606.434Z" transform="translate(-56.242 772.384)"/>
      <path id="Path_64" data-name="Path 64" class="cls-11" d="M1146.886-589.636c-2.832,3.072-3.408,5.712-1.824,9.121,1.008,2.256,1.632,2.5,3.216,1.2,3.313-2.64,4.417-7.009,2.544-10.081C1149.67-591.268,1148.518-591.364,1146.886-589.636Z" transform="translate(-594.936 764.035)"/>
      <path id="Path_65" data-name="Path 65" class="cls-11" d="M64.488-567.831c-1.248.48-1.488.864-1.488,2.16,0,4.512,3.264,9.313,7.681,11.281,2.832,1.248,9.361,1.968,12.673,1.344,2.016-.384,2.208-1.248,1.008-4.656a16.841,16.841,0,0,0-7.153-8.929c-2.736-1.632-3.216-1.728-7.1-1.776A17.529,17.529,0,0,0,64.488-567.831Z" transform="translate(-32.758 752.359)"/>
      <path id="Path_66" data-name="Path 66" class="cls-11" d="M1154.2-565.718l-2.3,1.2,1.056,1.872c1.728,3.072,4.56,5.664,6.72,6.241,2.3.624,8.209-.144,9.073-1.2.816-.96-.192-2.88-2.88-5.568C1161.885-567.158,1158.477-567.926,1154.2-565.718Z" transform="translate(-598.942 751.59)"/>
      <path id="Path_67" data-name="Path 67" class="cls-11" d="M1109.024-564.161a8.812,8.812,0,0,0-3.024,6.145c0,2.112,1.248,6.241,2.016,6.721.72.432,4.225-3.12,5.233-5.329,1.152-2.448,1.1-3.792-.048-6.384C1112.193-565.265,1110.9-565.649,1109.024-564.161Z" transform="translate(-575.076 750.609)"/>
      <path id="Path_68" data-name="Path 68" class="cls-11" d="M276.787-562.175c-.816.576-.864,1.056-.624,3.84.432,4.608,1.824,7.441,5.376,10.849a15.144,15.144,0,0,0,3.648,2.928,15.573,15.573,0,0,1,3.024,1.152c2.784,1.3,8.833,2.784,9.169,2.256.432-.768-.816-7.153-1.92-9.553-1.536-3.36-4.608-6.961-6.865-8.113-.96-.48-2.352-1.3-3.024-1.728a12.058,12.058,0,0,0-3.6-1.3,22.858,22.858,0,0,1-3.312-.72A2.408,2.408,0,0,0,276.787-562.175Z" transform="translate(-143.528 749.344)"/>
      <path id="Path_69" data-name="Path 69" class="cls-11" d="M1137.676-558.907a7.7,7.7,0,0,0-2.256,4.176c-.336,2.256.528,5.76,1.488,6.048.72.24,3.408-2.016,5.04-4.368a5.675,5.675,0,0,0,.72-6.288C1141.661-561.74,1140.172-561.6,1137.676-558.907Z" transform="translate(-590.335 748.524)"/>
      <path id="Path_70" data-name="Path 70" class="cls-11" d="M1071.984-558.176c-3.024,2.688-3.984,4.608-3.984,8.017,0,2.88,1.584,7.345,2.88,8.161.768.48,2.592-1.344,5.328-5.424,2.544-3.84,2.832-5.232,1.584-8.161-.672-1.632-2.88-4.416-3.5-4.416A13.018,13.018,0,0,0,1071.984-558.176Z" transform="translate(-555.318 747.984)"/>
      <path id="Path_71" data-name="Path 71" class="cls-11" d="M46.627-533.19a8.845,8.845,0,0,0-.1,7.153,18.33,18.33,0,0,0,3.7,4.032c2.88,2.544,2.976,2.544,3.84,1.68a8.565,8.565,0,0,0,1.392-3.792c.384-2.448.288-3.168-.432-4.8A9.125,9.125,0,0,0,51-533.67C48.5-535.35,47.635-535.254,46.627-533.19Z" transform="translate(-23.825 734.903)"/>
      <path id="Path_72" data-name="Path 72" class="cls-11" d="M985.56-518.7c-2.688,2.688-4.56,7.825-4.56,12.433,0,3.072.24,3.888,1.92,7.249a23.709,23.709,0,0,0,2.832,4.656c.912.816.96.816,2.4-1.152a14.863,14.863,0,0,0,1.776-3.072c.144-.528.96-2.5,1.728-4.32,1.248-2.928,1.44-3.744,1.248-6.529a15.752,15.752,0,0,0-1.1-4.8c-1.008-1.968-3.984-5.76-4.512-5.76A5.029,5.029,0,0,0,985.56-518.7Z" transform="translate(-510.081 727.186)"/>
      <path id="Path_73" data-name="Path 73" class="cls-11" d="M21.128-495.346c-.864,1.056-1.2,5.664-.576,7.633.96,2.88,4.128,5.664,8.113,7.2a14.1,14.1,0,0,0,4.128,1.152c.96-.384,1.2-2.544.72-6-.528-3.792-.816-4.272-3.744-6.913C25.977-495.73,22.424-496.93,21.128-495.346Z" transform="translate(-10.52 714.725)"/>
      <path id="Path_74" data-name="Path 74" class="cls-11" d="M1029.868-491.714a12.925,12.925,0,0,0-3.168,7.825c-.048,4.128,2.5,9.793,4.128,9.217a12.469,12.469,0,0,0,2.208-3.456,10.736,10.736,0,0,0,1.728-6.721c0-3.12-.144-3.744-1.44-5.568C1031.548-492.914,1031.116-493.058,1029.868-491.714Z" transform="translate(-533.843 712.917)"/>
      <path id="Path_75" data-name="Path 75" class="cls-11" d="M1194.966-488.831a11.805,11.805,0,0,0-2.208,2.064c-.96,1.248-.912,3.024.144,3.312.432.144,1.776.672,2.928,1.2,1.968.912,2.208.912,4.32.192,2.448-.816,5.808-3.5,5.808-4.7,0-.96-.768-1.488-3.552-2.448C1199.046-490.319,1196.838-490.223,1194.966-488.831Z" transform="translate(-619.83 711.571)"/>
      <path id="Path_76" data-name="Path 76" class="cls-11" d="M182.321-472.373c-.336.912.528,4.032,1.728,5.9,1.92,3.12,8.353,5.76,11.377,4.656,1.152-.432,1.344-.72,1.3-2.256-.1-2.256-2.352-6-4.272-7.057C188.993-473,182.849-473.765,182.321-472.373Z" transform="translate(-94.762 702.792)"/>
      <path id="Path_77" data-name="Path 77" class="cls-11" d="M1226.476-469.068a10.594,10.594,0,0,0-4.224,9.409c.24,2.88,1.872,6.769,2.832,6.769.912,0,5.04-4.656,6.1-6.913a9.94,9.94,0,0,0,1.008-3.84,9.9,9.9,0,0,0-2.736-6.145C1228.541-470.6,1228.444-470.6,1226.476-469.068Z" transform="translate(-635.499 701.36)"/>
      <path id="Path_78" data-name="Path 78" class="cls-11" d="M48.486-456.7c-1.1,2.832.288,7.729,2.832,10.081a20.256,20.256,0,0,0,8.785,3.84c2.112.24,2.3.192,2.592-.864.384-1.728-.48-6.336-1.584-8.449-.768-1.44-4.416-4.464-5.376-4.464a3.706,3.706,0,0,1-1.728-.72A5.874,5.874,0,0,0,51.03-458C49.254-458,48.918-457.856,48.486-456.7Z" transform="translate(-25.012 694.948)"/>
      <path id="Path_79" data-name="Path 79" class="cls-11" d="M11.185-456.291c-2.88.912-4.608,2.3-6.673,5.424C2.592-447.939,0-441.266,0-439.058c0,2.016,1.632,2.544,6,1.92,5.616-.816,10.177-3.648,12.385-7.729a23.209,23.209,0,0,0,2.736-9.5c0-1.68-.192-2.064-1.056-2.3A24.335,24.335,0,0,0,11.185-456.291Z" transform="translate(0 694.392)"/>
      <path id="Path_80" data-name="Path 80" class="cls-11" d="M1235.958-436.792c-3.792,1.824-3.936,2.256-2.208,5.328a18.668,18.668,0,0,0,6.865,6.817c3.024,1.584,11.377,1.008,14.017-.912.864-.672.864-.768-.576-3.312a23.424,23.424,0,0,0-7.825-7.825,14.243,14.243,0,0,0-4.752-1.056A9.022,9.022,0,0,0,1235.958-436.792Z" transform="translate(-640.948 684.445)"/>
      <path id="Path_81" data-name="Path 81" class="cls-11" d="M1108.376-434.393c-1.056,1.3-1.776,4.608-1.776,7.825.048,6.1,3.792,11.425,10.033,14.4,3.408,1.584,3.888,1.536,4.56-.528.816-2.4.864-10.513.1-13.057a13.971,13.971,0,0,0-6.241-7.057c-.96-.48-2.4-1.1-3.168-1.488C1110.152-435.113,1108.952-435.161,1108.376-434.393Z" transform="translate(-575.388 682.958)"/>
      <path id="Path_82" data-name="Path 82" class="cls-11" d="M1215.211-429.608a10.493,10.493,0,0,0-4.464,11.089c.432,2.352,1.248,4.32,1.728,4.32.864,0,3.168-1.68,4.944-3.6,2.16-2.352,3.408-4.752,3.408-6.625,0-1.68-2.256-6.577-3.024-6.577A7.643,7.643,0,0,0,1215.211-429.608Z" transform="translate(-629.418 680.91)"/>
      <path id="Path_83" data-name="Path 83" class="cls-11" d="M164-421.13c-.912.336-1.728.96-1.824,1.392-.24,1.1,1.536,3.408,3.552,4.656,1.44.864,2.16,1.008,4.608.768a7.188,7.188,0,0,0,3.7-1.056c.72-.72.672-.912-.24-2.544C171.873-421.274,167.985-422.57,164-421.13Z" transform="translate(-84.314 676.08)"/>
      <path id="Path_84" data-name="Path 84" class="cls-11" d="M870.7-414.316c-4.416,5.04-5.233,10.369-2.448,16.321,1.728,3.84,3.264,5.616,4.464,5.136.816-.288,5.28-6.961,6.144-9.169.912-2.352.576-6.721-.72-9.457-1.392-2.88-2.016-3.7-3.7-4.8l-1.3-.816Z" transform="translate(-450.616 673.682)"/>
      <path id="Path_85" data-name="Path 85" class="cls-11" d="M1175.787-413.195c-.816.576-.864,1.1-.624,4.08.576,6.865,4.752,11.377,11.521,12.337l2.256.336v-2.88a24.124,24.124,0,0,0-1.008-6.145c-1.2-3.984-4.176-7.2-7.1-7.633-.96-.192-2.256-.384-2.928-.528A3.438,3.438,0,0,0,1175.787-413.195Z" transform="translate(-610.973 671.889)"/>
      <path id="Path_86" data-name="Path 86" class="cls-11" d="M934.925-406.879c-.384.624-1.3,2.5-2.064,4.224a16.636,16.636,0,0,0-.144,13.537c2.064,4.368,8.353,10.417,10.129,9.7,1.632-.624,4.128-8.4,4.272-13.345a15.325,15.325,0,0,0-8.161-14.161C936.462-408.223,935.789-408.175,934.925-406.879Z" transform="translate(-484.264 668.886)"/>
      <path id="Path_87" data-name="Path 87" class="cls-11" d="M1062.016-404.382A10.638,10.638,0,0,0,1060-399.2c0,2.928,2.3,6.913,3.7,6.385.912-.336,3.024-4.992,3.024-6.673a6.575,6.575,0,0,0-2.5-4.7C1062.928-405.1,1062.64-405.15,1062.016-404.382Z" transform="translate(-551.158 667.349)"/>
      <path id="Path_88" data-name="Path 88" class="cls-11" d="M124.481-393.9c-1.968,1.1-6.481,6.528-6.481,7.777,0,1.776,5.808,2.832,8.977,1.632,2.016-.72,4.944-3.744,5.952-6.1a18,18,0,0,0,.912-2.448c0-.72-3.456-1.968-5.424-1.968A9.186,9.186,0,0,0,124.481-393.9Z" transform="translate(-61.355 662.191)"/>
      <path id="Path_89" data-name="Path 89" class="cls-11" d="M1074.873-385.1a11.113,11.113,0,0,0-2.832,2.16l-1.44,1.488,1.68,1.728c3.456,3.7,7.681,4.464,11.953,2.208,3.744-1.92,3.984-2.592,1.68-4.608a12.157,12.157,0,0,0-2.352-1.728,2.87,2.87,0,0,1-1.248-.72C1081.209-385.576,1076.649-385.912,1074.873-385.1Z" transform="translate(-556.67 657.279)"/>
      <path id="Path_90" data-name="Path 90" class="cls-11" d="M279-379.892c0,5.136,1.632,8.353,5.76,11.377,2.352,1.728,8.881,4.656,9.361,4.176.528-.528.192-5.328-.528-7.777a14.548,14.548,0,0,0-6.577-8.593,12.864,12.864,0,0,0-5.568-2.3L279-383.3Z" transform="translate(-145.069 656.107)"/>
      <path id="Path_91" data-name="Path 91" class="cls-11" d="M987.445-372.792a15.3,15.3,0,0,0-.672,10.177,11.411,11.411,0,0,0,3.456,4.9c1.488,1.3,2.928,2.4,3.312,2.4.336,0,1.1-1.152,1.728-2.544.912-2.016,1.152-3.312,1.152-6.865,0-3.84-.144-4.56-1.2-6.048-1.3-1.92-4.512-4.224-5.9-4.224C988.741-375,988.117-374.28,987.445-372.792Z" transform="translate(-512.781 651.792)"/>
      <path id="Path_92" data-name="Path 92" class="cls-11" d="M1061.592-374.6c-1.1.72-2.592,3.744-2.592,5.28a10.3,10.3,0,0,0,2.208,5.616c.672.912.72.912,1.968-.672,3.168-4.032,3.552-6.384,1.488-9.313C1063.753-374.987,1062.649-375.323,1061.592-374.6Z" transform="translate(-550.638 651.779)"/>
      <path id="Path_93" data-name="Path 93" class="cls-11" d="M194-362.744a9.157,9.157,0,0,0,3.456,7.2c2.832,1.872,8.785,2.736,9.361,1.344.432-1.248-.864-4.944-2.544-7.153A9.945,9.945,0,0,0,196.064-365H194Z" transform="translate(-100.872 646.592)"/>
      <path id="Path_94" data-name="Path 94" class="cls-11" d="M165.4-350.691c-.624.624-.432,4.032.336,5.424.816,1.632,3.888,3.216,7.1,3.6,2.256.288,2.256.24,2.256-1.152a8.206,8.206,0,0,0-3.408-6.481C169.861-350.6,166.068-351.411,165.4-350.691Z" transform="translate(-85.806 639.292)"/>
      <path id="Path_95" data-name="Path 95" class="cls-11" d="M124-346.456c0,2.544,0,2.592,2.448,4.176a11.07,11.07,0,0,0,4.8,1.824c2.16.192,2.352.144,2.352-.816a10.717,10.717,0,0,0-1.2-3.408A7.566,7.566,0,0,0,125.68-349H124Z" transform="translate(-64.475 638.273)"/>
      <path id="Path_96" data-name="Path 96" class="cls-11" d="M263.329-340.659c-.672.624-.288,4.56.576,6.337a11.393,11.393,0,0,0,6.24,5.328,5.685,5.685,0,0,1,2.208.96c.624,1.056,1.2-.192,1.2-2.544-.048-3.936-1.344-6.193-4.9-8.449C265.826-340.851,264.049-341.427,263.329-340.659Z" transform="translate(-136.743 634.108)"/>
      <path id="Path_97" data-name="Path 97" class="cls-11" d="M1132.992-337.4c.144,3.168.336,3.744,1.584,5.088a14.374,14.374,0,0,0,6.913,3.552l1.632.336-.288-3.216c-.432-4.56-1.536-6.433-4.7-8.017a12.4,12.4,0,0,0-3.984-1.344H1132.8Z" transform="translate(-589.011 634.113)"/>
      <path id="Path_98" data-name="Path 98" class="cls-11" d="M369.289-333.306a18.37,18.37,0,0,0-1.584,2.976c-2.64,6.048-.48,12.481,5.808,17.233,3.5,2.592,5.952,3.888,6.865,3.5,1.344-.48,2.4-5.328,2.16-9.649-.336-6.241-2.928-10.129-8.737-13.2C370.681-334.075,370.009-334.219,369.289-333.306Z" transform="translate(-190.618 630.404)"/>
      <path id="Path_99" data-name="Path 99" class="cls-11" d="M145.339-330.642c-.72.672-.24,2.5,1.1,4.368,1.536,2.112,3.5,2.976,6.913,2.976h1.872l-.288-2.064a7.192,7.192,0,0,0-4.56-5.184C149.083-331.026,145.771-331.122,145.339-330.642Z" transform="translate(-75.397 628.891)"/>
      <path id="Path_100" data-name="Path 100" class="cls-11" d="M127.7-327.088c-3.312,1.488-4.7,3.888-5.232,8.929-.24,2.112-.144,3.12.336,3.792.624.864.72.816,3.264-.336,2.928-1.344,5.52-3.936,6-6,.144-.72.384-1.584.48-1.968a13.35,13.35,0,0,0-.1-2.976c-.288-2.16-.432-2.352-1.584-2.352A10.141,10.141,0,0,0,127.7-327.088Z" transform="translate(-63.61 627.354)"/>
      <path id="Path_101" data-name="Path 101" class="cls-11" d="M410.592-327.352c-.816.816-.72,5.376.144,7.441,1.392,3.264,3.12,4.992,6.865,6.769a15.674,15.674,0,0,0,5.568,1.728l1.968.048.144-2.544c.192-3.36-1.68-8.449-3.936-10.609C418.8-326.968,412.032-328.792,410.592-327.352Z" transform="translate(-213.2 627.282)"/>
      <path id="Path_102" data-name="Path 102" class="cls-11" d="M352.344-285.178a16.557,16.557,0,0,0-1.248,2.592c-1.584,4.08.24,8.3,5.04,11.809,3.168,2.352,3.936,2.3,4.9-.1a10.993,10.993,0,0,0-4.656-13.345C354.168-285.562,352.872-285.85,352.344-285.178Z" transform="translate(-182.266 605.269)"/>
      <path id="Path_103" data-name="Path 103" class="cls-11" d="M329.892-261.443c-1.248,1.3-1.392,1.776-1.392,4.656,0,3.984,1.392,7.057,3.168,7.057.864,0,1.44-.624,2.688-2.832,1.776-3.12,1.968-4.9.816-7.153C333.348-263.315,332.1-263.747,329.892-261.443Z" transform="translate(-170.807 593.487)"/>
      <path id="Path_104" data-name="Path 104" class="cls-11" d="M288.047-259.374c-.72,1.1-.192,3.792,1.056,5.424,1.584,2.112,5.376,4.032,6,3.072.624-.912.144-4.656-.816-6.049C292.8-259.23,288.911-260.766,288.047-259.374Z" transform="translate(-149.604 591.946)"/>
      <path id="Path_105" data-name="Path 105" class="cls-11" d="M233.944-256.7A20.489,20.489,0,0,0,231.4-252.1c-1.488,3.792-1.392,5.232.624,9.457,1.392,2.928,6.577,8.257,7.777,8.065.384-.1,1.488-1.632,2.4-3.456a14.93,14.93,0,0,0,1.824-6.529c.192-2.88.048-3.5-1.488-6.529a10.985,10.985,0,0,0-4.272-5.136A21.765,21.765,0,0,0,235.432-258,5.936,5.936,0,0,0,233.944-256.7Z" transform="translate(-119.79 590.956)"/>
      <path id="Path_106" data-name="Path 106" class="cls-11" d="M138.273-247.793c-3.552,2.3-5.424,5.9-3.5,6.673a11.527,11.527,0,0,0,6.913-.576c1.92-.96,3.84-3.552,3.84-5.184C145.521-249.186,141.2-249.762,138.273-247.793Z" transform="translate(-69.675 586.27)"/>
      <path id="Path_107" data-name="Path 107" class="cls-11" d="M303.63-238.827c-.72,1.68.192,4.848,1.824,6.1,1.488,1.248,4.608,2.208,5.617,1.824,1.056-.432.96-2.16-.288-4.656a7.541,7.541,0,0,0-5.28-4.08C304.4-239.931,304.11-239.787,303.63-238.827Z" transform="translate(-157.746 581.48)"/>
      <path id="Path_108" data-name="Path 108" class="cls-11" d="M283.112-238.391c-2.352.672-4.656,3.216-5.856,6.385-1.3,3.5-1.008,4.608,1.1,4.608,5.088,0,9.889-4.464,9.889-9.217,0-1.392-.192-1.776-1.056-2.016A6.781,6.781,0,0,0,283.112-238.391Z" transform="translate(-143.756 580.996)"/>
      <path id="Path_109" data-name="Path 109" class="cls-11" d="M196.471-231.5a9.422,9.422,0,0,0-2.976,8.113c.384,2.208,2.784,7.3,3.936,8.3.912.816,1.008.816,2.5-.48,2.208-1.824,3.84-5.76,3.84-9.169a8.015,8.015,0,0,0-1.488-5.184C199.975-233.559,199.159-233.751,196.471-231.5Z" transform="translate(-100.559 577.941)"/>
      <path id="Path_110" data-name="Path 110" class="cls-11" d="M130-216.255c-.528.96.144,4.752,1.1,6.241,1.056,1.632,6.241,4.032,8.737,4.032,2.544,0,2.832-.576,2.016-3.936a7.309,7.309,0,0,0-2.544-4.368,7.719,7.719,0,0,0-2.784-1.776,1.491,1.491,0,0,1-1.1-.48C134.9-217.359,130.479-217.119,130-216.255Z" transform="translate(-67.498 569.661)"/>
      <path id="Path_111" data-name="Path 111" class="cls-11" d="M158.472-192.524c-.48.768.576,4.32,1.776,5.9,1.728,2.352,6.1,3.888,9.553,3.456,2.784-.384,2.832-.768.72-4.7-2.16-4.032-3.408-4.8-7.969-4.992C160.2-193,158.664-192.86,158.472-192.524Z" transform="translate(-82.337 557.115)"/>
      <path id="Path_112" data-name="Path 112" class="cls-11" d="M136.346-188.993c-6.192,2.016-8.881,6.913-8.017,14.737.288,2.928.384,3.072,1.632,3.072,3.5,0,10.561-5.76,11.281-9.169.48-2.592.336-8.353-.288-8.977C140.234-190.049,139.514-190,136.346-188.993Z" transform="translate(-66.644 555.504)"/>
    </g>
    <g id="Group_17" data-name="Group 17" transform="translate(60 381.607)">
      <line id="Line_2" data-name="Line 2" class="cls-12" y1="9.307" x2="9.307" transform="translate(73.525 15.822)"/>
      <path id="Path_113" data-name="Path 113" class="cls-12" d="M0,15.822V0" transform="translate(49.327 0)"/>
      <line id="Line_4" data-name="Line 4" class="cls-12" x2="14.891" transform="translate(82.832 50.258)"/>
      <line id="Line_5" data-name="Line 5" class="cls-12" x2="10.238" y2="10.238" transform="translate(73.525 73.525)"/>
      <line id="Line_6" data-name="Line 6" class="cls-4" y2="13.961" transform="translate(49.327 83.763)"/>
      <line id="Line_7" data-name="Line 7" class="cls-12" x1="10.238" y2="10.238" transform="translate(14.891 73.525)"/>
      <path id="Path_115" data-name="Path 115" class="cls-12" d="M14.891,0H0" transform="translate(0 50.258)"/>
      <path id="Path_114" data-name="Path 114" class="cls-12" d="M9.307,9.307,0,0" transform="translate(16.753 15.822)"/>
      <g id="Ellipse_77" data-name="Ellipse 77" class="cls-4" transform="translate(26.525 26.525)">
        <ellipse class="cls-13" cx="23.733" cy="23.733" rx="23.733" ry="23.733"/>
        <ellipse class="cls-15" cx="23.733" cy="23.733" rx="22.233" ry="22.233"/>
      </g>
    </g>
  </g>
</svg>
