<svg id="toronto-maple-leafs-6" xmlns="http://www.w3.org/2000/svg" viewBox="0 0 89.204 89.204">
  <defs>
    <style>
      .cls-1 {
        fill: none;
      }

      .cls-1, .cls-2, .cls-3 {
        fill-rule: evenodd;
      }

      .cls-2 {
        fill: #4b5940;
      }

      .cls-3 {
        fill: #50ae8b;
      }
    </style>
  </defs>
  <path id="Path_262" data-name="Path 262" class="cls-1" d="M0,0H89.2V89.2H0Z"/>
  <path id="Path_263" data-name="Path 263" class="cls-2" d="M75.736,63.916c3.52-2.054,7.335-4.107,11.148-5.868a13.03,13.03,0,0,1-2.346-3.228c.293-1.173,5.281-22.885,5.281-22.885L72.8,29.588,62.532,35.162,67.52,13.745c-2.054,0-4.4.293-6.161-.88L49.036,2.834,36.713,12.864c-1.76,1.174-4.108.88-6.161.88l4.987,21.418L25.27,29.588,8.253,31.936S13.24,53.647,13.534,54.82a13.04,13.04,0,0,1-2.347,3.228c3.814,1.761,7.628,3.814,11.149,5.868a5.267,5.267,0,0,1,2.054,1.467c1.76,3.228-1.174,6.748-2.347,9.976h22V89.416h9.976V75.36h22c-1.173-3.228-4.107-6.748-2.347-9.976a5.274,5.274,0,0,1,2.054-1.467Z" transform="translate(-4.434 -1.522)"/>
  <path id="Path_264" data-name="Path 264" class="cls-3" d="M71.063,59.669h.009l0,.032h.009l-.025-.066Z" transform="translate(-38.175 -32.037)"/>
  <path id="Path_266" data-name="Path 266" class="cls-3" d="M62.748,59.67l0-.035-.024.066h.009l0-.031Z" transform="translate(-33.698 -32.037)"/>
</svg>
