<svg xmlns="http://www.w3.org/2000/svg" xmlns:xlink="http://www.w3.org/1999/xlink" viewBox="0 0 431.408 223.163"><defs><style>.a,.b{fill:#37412a;}.b{font-size:95px;}.b,.d{font-family:SegoeUI-Bold, Segoe UI;font-weight:700;}.c,.d{fill:#71eeb8;}.d{font-size:15px;}.e{filter:url(#c);}.f{filter:url(#a);}</style><filter id="a" x="108.408" y="78.163" width="323" height="145" filterUnits="userSpaceOnUse"><feOffset dx="12" dy="6" input="SourceAlpha"/><feGaussianBlur stdDeviation="3" result="b"/><feFlood flood-opacity="0.161"/><feComposite operator="in" in2="b"/><feComposite in="SourceGraphic"/></filter><filter id="c" x="29.408" y="106.163" width="75" height="101" filterUnits="userSpaceOnUse"><feOffset dx="12" dy="6" input="SourceAlpha"/><feGaussianBlur stdDeviation="3" result="d"/><feFlood flood-opacity="0.161"/><feComposite operator="in" in2="d"/><feComposite in="SourceGraphic"/></filter></defs><g transform="translate(-33.592 -85.837)"><g transform="translate(-25 1)"><rect class="a" width="379" height="8" transform="translate(88 176)"/><g transform="translate(-211 -180)"><g transform="translate(1)"><path class="a" d="M14.02-.1c2.754,4.761,14.02,15.871,14.02,35.448S13.833,69.568,14.02,70.8,0,54.926,0,35.349,11.266-4.86,14.02-.1Z" transform="translate(269.069 297.723) rotate(-37)"/></g><path class="a" d="M10.32-.282c2.028,3.5,10.32,11.682,10.32,26.093S10.183,51,10.32,51.9,0,40.222,0,25.811,8.292-3.786,10.32-.282Z" transform="matrix(0.97, 0.242, -0.242, 0.97, 326.38, 265.605)"/><path class="a" d="M15.295,3.247c2.6,4.709,11.181,12.379,11.181,31.742S13.061,68.834,13.238,70.05,0,54.353,0,34.989,12.694-1.462,15.295,3.247Z" transform="translate(358.242 280.065) rotate(33)"/></g><g class="f" transform="matrix(1, 0, 0, 1, 58.59, 84.84)"><text class="b" transform="translate(108.41 81.16)"><tspan x="2.771" y="103">FLORA</tspan></text></g><g transform="translate(-216 -207)"><g class="e" transform="matrix(1, 0, 0, 1, 274.59, 291.84)"><rect class="a" width="54" height="83" rx="27" transform="translate(29.41 109.16)"/></g><rect class="c" width="1" height="58" transform="translate(330 414)"/><text class="d" transform="translate(317 426)"><tspan x="-4.314" y="0">1</tspan></text><text class="d" transform="translate(344 426)"><tspan x="-4.314" y="0">0</tspan></text><text class="d" transform="translate(344 468)"><tspan x="-4.314" y="0">1</tspan></text><text class="d" transform="translate(344 447)"><tspan x="-4.314" y="0">0</tspan></text><text class="d" transform="translate(317 447)"><tspan x="-4.314" y="0">0</tspan></text><text class="d" transform="translate(317 468)"><tspan x="-4.314" y="0">0</tspan></text></g></g></g></svg>