<svg id="footer-logo-img" xmlns="http://www.w3.org/2000/svg" viewBox="0 0 89.204 89.204">
  <defs>
    <style>
      .cls-1 {
        fill: #c7ea46;
      }

      .cls-1, .cls-2, .cls-3, .cls-4 {
        fill-rule: evenodd;
      }

      .cls-2 {
        fill: #4b5940;
      }

      .cls-3 {
        fill: #50ae8b;
      }

      .cls-4 {
        fill: #fff;
      }
    </style>
  </defs>
  <path id="Path_262" data-name="Path 262" class="cls-1" d="M0,0H89.2V89.2H0Z"/>
  <path id="Path_263" data-name="Path 263" class="cls-2" d="M75.736,63.916c3.52-2.054,7.335-4.107,11.148-5.868a13.03,13.03,0,0,1-2.346-3.228c.293-1.173,5.281-22.885,5.281-22.885L72.8,29.588,62.532,35.162,67.52,13.745c-2.054,0-4.4.293-6.161-.88L49.036,2.834,36.713,12.864c-1.76,1.174-4.108.88-6.161.88l4.987,21.418L25.27,29.588,8.253,31.936S13.24,53.647,13.534,54.82a13.04,13.04,0,0,1-2.347,3.228c3.814,1.761,7.628,3.814,11.149,5.868a5.267,5.267,0,0,1,2.054,1.467c1.76,3.228-1.174,6.748-2.347,9.976h22V89.416h9.976V75.36h22c-1.173-3.228-4.107-6.748-2.347-9.976a5.274,5.274,0,0,1,2.054-1.467Z" transform="translate(-4.434 -1.522)"/>
  <path id="Path_264" data-name="Path 264" class="cls-3" d="M71.063,59.669h.009l0,.032h.009l-.025-.066Z" transform="translate(-38.175 -32.037)"/>
  <path id="Path_265" data-name="Path 265" class="cls-4" d="M42.88,84.219l-.7,2.136H43.8v.019h-.009v6.29h1.871v-.871h.009V86.355h1.559V84.219Zm36.788,0-.7,2.136h1.616v.019h-.01v6.29h1.871v-.871h.009V86.355h1.558V84.219Zm-1.946,0H76.245v4.367l-2.506-4.367h-2.3v8.444h2.232V88.408l2.457,4.255h2.352V84.219ZM60.769,88.953a2.4,2.4,0,0,0,.784-.83,2.555,2.555,0,0,0,.309-1.309A2.4,2.4,0,0,0,60,84.346a2.3,2.3,0,0,0-.228-.041.372.372,0,0,0-.23-.086H56.251v8.445h2.164V90.548l1.1,2.115h2.351l-1.715-3.408a2.991,2.991,0,0,0,.622-.3ZM59.726,87.5a1.207,1.207,0,0,1-.582.412,2.979,2.979,0,0,1-.73.11V85.666a4.25,4.25,0,0,1,.478.041,1.342,1.342,0,0,1,.748.376,1.031,1.031,0,0,1,.3.757,1.073,1.073,0,0,1-.211.661Zm6.782-3.282a4.222,4.222,0,1,0,4.222,4.222A4.222,4.222,0,0,0,66.508,84.219Zm0,6.374a2.152,2.152,0,1,1,2.152-2.152,2.152,2.152,0,0,1-2.152,2.152ZM51.446,84.219a4.222,4.222,0,1,0,4.223,4.222,4.222,4.222,0,0,0-4.223-4.222Zm0,6.374A2.152,2.152,0,1,1,53.6,88.441a2.152,2.152,0,0,1-2.152,2.152Zm36.675-6.374a4.222,4.222,0,1,0,4.222,4.222,4.222,4.222,0,0,0-4.222-4.222Zm0,6.374a2.152,2.152,0,1,1,2.152-2.152,2.152,2.152,0,0,1-2.152,2.152Zm-13.9,9.842V94.1H72.352v.025h-.009v8.419h4.346l.7-2.109H74.223Zm-5.594-1.3,1.687,0h0a2.973,2.973,0,0,0,.623-.3,2.409,2.409,0,0,0,.783-.83,2.554,2.554,0,0,0,.309-1.309,2.4,2.4,0,0,0-1.866-2.469,2.284,2.284,0,0,0-.228-.041.371.371,0,0,0-.23-.086H66.419v8.444h2.164V100.43l.045.087Zm-.045-3.588a4.208,4.208,0,0,1,.477.041,1.337,1.337,0,0,1,.748.376,1.033,1.033,0,0,1,.3.757,1.072,1.072,0,0,1-.211.662,1.2,1.2,0,0,1-.581.412,2.943,2.943,0,0,1-.729.109V95.548Zm11.042,3.834,2.48-.013v-2.11h-2.48V96.211h3.165l-.7-2.11H77.746v.025h0v8.419h4.346l.7-2.109H79.625V99.382ZM64.152,94.1h-2.6l-.007.031h-.009l-1.907,8.412h1.88l.416-1.836h1.842l.409,1.8h.009l.007.031h1.871Zm-1.8,4.729.495-2.186.5,2.186ZM58.6,94.1H56.679l-.012.032h-.009l-1.121,3.081-1.122-3.081h-.009l-.012-.032H52.473l-.738,8.444H53.6l.024-.066L54,98.154l.6,1.642.94,2.582.939-2.582.6-1.642.379,4.325.024.066h1.861L58.6,94.1Z" transform="translate(-22.66 -39.69)"/>
  <path id="Path_266" data-name="Path 266" class="cls-3" d="M62.748,59.67l0-.035-.024.066h.009l0-.031Z" transform="translate(-33.698 -32.037)"/>
</svg>
