<svg id="footer-bg-masked" xmlns="http://www.w3.org/2000/svg" xmlns:xlink="http://www.w3.org/1999/xlink" viewBox="0 0 1920 547">
  <defs>
    <style>
      .cls-1 {
        fill: none;
        stroke: #707070;
      }

      .cls-2 {
        clip-path: url(#clip-path);
      }

      .cls-3, .cls-5 {
        opacity: 0.62;
      }

      .cls-4, .cls-5 {
        fill: #37412a;
      }
    </style>
    <clipPath id="clip-path">
      <rect id="Rectangle_837" data-name="Rectangle 837" class="cls-1" width="1920" height="547"/>
    </clipPath>
  </defs>
  <g id="Mask_Group_1" data-name="Mask Group 1" class="cls-2">
    <g id="footer_bg" data-name="footer bg">
      <g id="Leaf_icon__Noun_Project_" data-name="Leaf_icon_(Noun_Project)" class="cls-3" transform="matrix(-0.438, -0.899, 0.899, -0.438, 1605.093, 385.945)">
        <path id="Path_270" data-name="Path 270" class="cls-4" d="M52.521,7.952c79.782,62.235,75.864,120.181,26,225.273C66.729,218.967,5.084,163.684,31.2,85.852,52.734,21.693,52.521,7.952,52.521,7.952Z" transform="translate(58.83 0)"/>
        <path id="Path_271" data-name="Path 271" class="cls-4" d="M39.983,84.025S165.951,7.449,274.8,98.873c0,0-108.213,55.093-164.843,18.045S39.983,84.025,39.983,84.025Z" transform="translate(112.456 162.779)"/>
        <path id="Path_272" data-name="Path 272" class="cls-4" d="M177.164,150.677C165.7,167.353,102.335,234.872,8.172,322.9l5.084,18.186s109.75-129.4,168.33-181.7l-.032-.118c8.1-.744,24.907-2.286,59.832-5.5,82.086-7.537,91.655-80.322,118.117-131.977C219.128,17.907,210.416,52.8,177.164,150.677Z" transform="translate(0 47.895)"/>
      </g>
      <path id="Path_5" data-name="Path 5" class="cls-5" d="M25.933,1.282c5.095,8.806,25.933,29.356,25.933,65.568s-26.278,63.294-25.933,65.568S0,103.062,0,66.85,20.838-7.524,25.933,1.282Z" transform="matrix(0.839, 0.545, -0.545, 0.839, 1470.248, 247.813)"/>
      <path id="Path_273" data-name="Path 273" class="cls-5" d="M14.49.716c2.847,4.92,14.49,16.4,14.49,36.635S14.3,72.716,14.49,73.987,0,57.585,0,37.352,11.643-4.2,14.49.716Z" transform="matrix(0.988, 0.156, -0.156, 0.988, 1515.864, 335.968)"/>
      <path id="Path_274" data-name="Path 274" class="cls-5" d="M10.217.505c2.007,3.47,10.217,11.566,10.217,25.833S10.081,51.274,10.217,52.17,0,40.6,0,26.338,8.21-2.965,10.217.505Z" transform="translate(1387.355 464.731) rotate(60)"/>
      <path id="Path_275" data-name="Path 275" class="cls-5" d="M12.594.623C15.068,4.9,25.188,14.879,25.188,32.465S12.426,63.2,12.594,64.308,0,50.051,0,32.465,10.12-3.654,12.594.623Z" transform="translate(1552.249 153.485) rotate(59)"/>
      <path id="Path_276" data-name="Path 276" class="cls-5" d="M25.933,1.282c5.095,8.806,25.933,29.356,25.933,65.568s-26.278,63.294-25.933,65.568S0,103.062,0,66.85,20.838-7.524,25.933,1.282Z" transform="translate(70.905 455.466) rotate(49)"/>
      <path id="Path_277" data-name="Path 277" class="cls-5" d="M15.694.776c3.083,5.33,15.694,17.766,15.694,39.682s-15.9,38.305-15.694,39.682S0,62.373,0,40.457,12.611-4.554,15.694.776Z" transform="translate(6.664 438.15) rotate(15)"/>
      <path id="Path_278" data-name="Path 278" class="cls-5" d="M9.27.458c1.821,3.148,9.27,10.493,9.27,23.438S9.146,46.521,9.27,47.334,0,36.84,0,23.9,7.449-2.69,9.27.458Z" transform="translate(125.115 509.742) rotate(64)"/>
    </g>
  </g>
</svg>
